solid 
 facet normal  0.000000e+00  1.000000e+00  0.000000e+00
   outer loop
     vertex  5.000000e+00  8.000000e+00 -3.000000e+00
     vertex  0.000000e+00  8.000000e+00 -3.000000e+00
     vertex  0.000000e+00  8.000000e+00  0.000000e+00
   endloop
 endfacet
 facet normal  0.000000e+00  1.000000e+00 -0.000000e+00
   outer loop
     vertex  5.000000e+00  8.000000e+00 -3.000000e+00
     vertex  0.000000e+00  8.000000e+00  0.000000e+00
     vertex  5.000000e+00  8.000000e+00  0.000000e+00
   endloop
 endfacet
 facet normal  0.000000e+00 -0.000000e+00 -1.000000e+00
   outer loop
     vertex  5.000000e+00  8.000000e+00 -3.000000e+00
     vertex  5.000000e+00  0.000000e+00 -3.000000e+00
     vertex  0.000000e+00  0.000000e+00 -3.000000e+00
   endloop
 endfacet
 facet normal  0.000000e+00  0.000000e+00 -1.000000e+00
   outer loop
     vertex  0.000000e+00  8.000000e+00 -3.000000e+00
     vertex  5.000000e+00  8.000000e+00 -3.000000e+00
     vertex  0.000000e+00  0.000000e+00 -3.000000e+00
   endloop
 endfacet
 facet normal  1.000000e+00  0.000000e+00  0.000000e+00
   outer loop
     vertex  5.000000e+00  8.000000e+00  1.000000e+00
     vertex  5.000000e+00  8.500000e+00  5.010000e-01
     vertex  5.000000e+00  8.001000e+00  1.000000e+00
   endloop
 endfacet
 facet normal  1.000000e+00  0.000000e+00  0.000000e+00
   outer loop
     vertex  5.000000e+00  8.000000e+00  0.000000e+00
     vertex  5.000000e+00  8.500000e+00  0.000000e+00
     vertex  5.000000e+00  8.500000e+00  5.010000e-01
   endloop
 endfacet
 facet normal  1.000000e+00  0.000000e+00  0.000000e+00
   outer loop
     vertex  5.000000e+00  8.000000e+00  0.000000e+00
     vertex  5.000000e+00  8.500000e+00  5.010000e-01
     vertex  5.000000e+00  8.000000e+00  1.000000e+00
   endloop
 endfacet
 facet normal  1.000000e+00  0.000000e+00  0.000000e+00
   outer loop
     vertex  5.000000e+00  0.000000e+00  1.000000e+00
     vertex  5.000000e+00  8.000000e+00  1.000000e+00
     vertex  5.000000e+00  8.000000e+00  6.500000e+00
   endloop
 endfacet
 facet normal  1.000000e+00  0.000000e+00  0.000000e+00
   outer loop
     vertex  5.000000e+00  0.000000e+00  1.000000e+00
     vertex  5.000000e+00  8.000000e+00  6.500000e+00
     vertex  5.000000e+00  0.000000e+00  6.500000e+00
   endloop
 endfacet
 facet normal  1.000000e+00  0.000000e+00  0.000000e+00
   outer loop
     vertex  5.000000e+00 -5.000000e-01  5.010000e-01
     vertex  5.000000e+00  0.000000e+00  1.000000e+00
     vertex  5.000000e+00 -1.000000e-03  1.000000e+00
   endloop
 endfacet
 facet normal  1.000000e+00  0.000000e+00  0.000000e+00
   outer loop
     vertex  5.000000e+00  0.000000e+00  0.000000e+00
     vertex  5.000000e+00  8.000000e+00  0.000000e+00
     vertex  5.000000e+00  8.000000e+00  1.000000e+00
   endloop
 endfacet
 facet normal  1.000000e+00  0.000000e+00  0.000000e+00
   outer loop
     vertex  5.000000e+00  0.000000e+00  0.000000e+00
     vertex  5.000000e+00  8.000000e+00  1.000000e+00
     vertex  5.000000e+00  0.000000e+00  1.000000e+00
   endloop
 endfacet
 facet normal  1.000000e+00  0.000000e+00 -0.000000e+00
   outer loop
     vertex  5.000000e+00  0.000000e+00  0.000000e+00
     vertex  5.000000e+00  0.000000e+00  1.000000e+00
     vertex  5.000000e+00 -5.000000e-01  5.010000e-01
   endloop
 endfacet
 facet normal  1.000000e+00  0.000000e+00  0.000000e+00
   outer loop
     vertex  5.000000e+00 -5.000000e-01  0.000000e+00
     vertex  5.000000e+00  0.000000e+00  0.000000e+00
     vertex  5.000000e+00 -5.000000e-01  5.010000e-01
   endloop
 endfacet
 facet normal  1.000000e+00  0.000000e+00  0.000000e+00
   outer loop
     vertex  5.000000e+00  0.000000e+00 -3.000000e+00
     vertex  5.000000e+00  8.000000e+00 -3.000000e+00
     vertex  5.000000e+00  8.000000e+00  0.000000e+00
   endloop
 endfacet
 facet normal  1.000000e+00  0.000000e+00  0.000000e+00
   outer loop
     vertex  5.000000e+00  0.000000e+00 -3.000000e+00
     vertex  5.000000e+00  8.000000e+00  0.000000e+00
     vertex  5.000000e+00  0.000000e+00  0.000000e+00
   endloop
 endfacet
 facet normal  0.000000e+00  0.000000e+00 -1.000000e+00
   outer loop
     vertex  0.000000e+00  8.500000e+00  0.000000e+00
     vertex  5.000000e+00  8.500000e+00  0.000000e+00
     vertex  5.000000e+00  8.000000e+00  0.000000e+00
   endloop
 endfacet
 facet normal  0.000000e+00  0.000000e+00 -1.000000e+00
   outer loop
     vertex  0.000000e+00  8.500000e+00  0.000000e+00
     vertex  5.000000e+00  8.000000e+00  0.000000e+00
     vertex  0.000000e+00  8.000000e+00  0.000000e+00
   endloop
 endfacet
 facet normal -1.000000e+00 -0.000000e+00  0.000000e+00
   outer loop
     vertex  0.000000e+00  0.000000e+00  1.000000e+00
     vertex  0.000000e+00 -5.000000e-01  5.010000e-01
     vertex  0.000000e+00 -1.000000e-03  1.000000e+00
   endloop
 endfacet
 facet normal -1.000000e+00  0.000000e+00  0.000000e+00
   outer loop
     vertex  0.000000e+00  0.000000e+00  0.000000e+00
     vertex  0.000000e+00 -5.000000e-01  0.000000e+00
     vertex  0.000000e+00 -5.000000e-01  5.010000e-01
   endloop
 endfacet
 facet normal -1.000000e+00  0.000000e+00  0.000000e+00
   outer loop
     vertex  0.000000e+00  0.000000e+00  0.000000e+00
     vertex  0.000000e+00 -5.000000e-01  5.010000e-01
     vertex  0.000000e+00  0.000000e+00  1.000000e+00
   endloop
 endfacet
 facet normal -1.000000e+00  0.000000e+00  0.000000e+00
   outer loop
     vertex  0.000000e+00  8.000000e+00  1.000000e+00
     vertex  0.000000e+00  0.000000e+00  1.000000e+00
     vertex  0.000000e+00  0.000000e+00  4.500000e+00
   endloop
 endfacet
 facet normal -1.000000e+00  0.000000e+00  0.000000e+00
   outer loop
     vertex  0.000000e+00  8.000000e+00  1.000000e+00
     vertex  0.000000e+00  0.000000e+00  4.500000e+00
     vertex  0.000000e+00  8.000000e+00  4.500000e+00
   endloop
 endfacet
 facet normal -1.000000e+00  0.000000e+00  0.000000e+00
   outer loop
     vertex  0.000000e+00  8.500000e+00  5.010000e-01
     vertex  0.000000e+00  8.000000e+00  1.000000e+00
     vertex  0.000000e+00  8.001000e+00  1.000000e+00
   endloop
 endfacet
 facet normal -1.000000e+00  0.000000e+00  0.000000e+00
   outer loop
     vertex  0.000000e+00  8.000000e+00  0.000000e+00
     vertex  0.000000e+00  0.000000e+00  1.000000e+00
     vertex  0.000000e+00  8.000000e+00  1.000000e+00
   endloop
 endfacet
 facet normal -1.000000e+00  0.000000e+00  0.000000e+00
   outer loop
     vertex  0.000000e+00  8.000000e+00  0.000000e+00
     vertex  0.000000e+00  0.000000e+00  0.000000e+00
     vertex  0.000000e+00  0.000000e+00  1.000000e+00
   endloop
 endfacet
 facet normal -1.000000e+00  0.000000e+00  0.000000e+00
   outer loop
     vertex  0.000000e+00  8.000000e+00  0.000000e+00
     vertex  0.000000e+00  8.000000e+00  1.000000e+00
     vertex  0.000000e+00  8.500000e+00  5.010000e-01
   endloop
 endfacet
 facet normal -1.000000e+00  0.000000e+00  0.000000e+00
   outer loop
     vertex  0.000000e+00  8.500000e+00  0.000000e+00
     vertex  0.000000e+00  8.000000e+00  0.000000e+00
     vertex  0.000000e+00  8.500000e+00  5.010000e-01
   endloop
 endfacet
 facet normal -1.000000e+00  0.000000e+00  0.000000e+00
   outer loop
     vertex  0.000000e+00  8.000000e+00 -3.000000e+00
     vertex  0.000000e+00  0.000000e+00 -3.000000e+00
     vertex  0.000000e+00  0.000000e+00  0.000000e+00
   endloop
 endfacet
 facet normal -1.000000e+00  0.000000e+00  0.000000e+00
   outer loop
     vertex  0.000000e+00  8.000000e+00 -3.000000e+00
     vertex  0.000000e+00  0.000000e+00  0.000000e+00
     vertex  0.000000e+00  8.000000e+00  0.000000e+00
   endloop
 endfacet
 facet normal  0.000000e+00 -1.000000e+00  0.000000e+00
   outer loop
     vertex  0.000000e+00  0.000000e+00 -3.000000e+00
     vertex  5.000000e+00  0.000000e+00 -3.000000e+00
     vertex  5.000000e+00  0.000000e+00  0.000000e+00
   endloop
 endfacet
 facet normal  0.000000e+00 -1.000000e+00  0.000000e+00
   outer loop
     vertex  0.000000e+00  0.000000e+00 -3.000000e+00
     vertex  5.000000e+00  0.000000e+00  0.000000e+00
     vertex  0.000000e+00  0.000000e+00  0.000000e+00
   endloop
 endfacet
 facet normal  0.000000e+00  1.000000e+00  0.000000e+00
   outer loop
     vertex  5.000000e+00  8.500000e+00  0.000000e+00
     vertex  0.000000e+00  8.500000e+00  0.000000e+00
     vertex  0.000000e+00  8.500000e+00  5.010000e-01
   endloop
 endfacet
 facet normal  0.000000e+00  1.000000e+00 -0.000000e+00
   outer loop
     vertex  5.000000e+00  8.500000e+00  0.000000e+00
     vertex  0.000000e+00  8.500000e+00  5.010000e-01
     vertex  5.000000e+00  8.500000e+00  5.010000e-01
   endloop
 endfacet
 facet normal  0.000000e+00  7.071068e-01  7.071068e-01
   outer loop
     vertex  5.000000e+00  8.001000e+00  1.000000e+00
     vertex  0.000000e+00  8.500000e+00  5.010000e-01
     vertex  0.000000e+00  8.001000e+00  1.000000e+00
   endloop
 endfacet
 facet normal  0.000000e+00  7.071068e-01  7.071068e-01
   outer loop
     vertex  5.000000e+00  8.001000e+00  1.000000e+00
     vertex  5.000000e+00  8.500000e+00  5.010000e-01
     vertex  0.000000e+00  8.500000e+00  5.010000e-01
   endloop
 endfacet
 facet normal -0.000000e+00  8.881784e-13  1.000000e+00
   outer loop
     vertex  0.000000e+00  8.001000e+00  1.000000e+00
     vertex  5.000000e+00  8.000000e+00  1.000000e+00
     vertex  5.000000e+00  8.001000e+00  1.000000e+00
   endloop
 endfacet
 facet normal  0.000000e+00  8.881784e-13  1.000000e+00
   outer loop
     vertex  0.000000e+00  8.001000e+00  1.000000e+00
     vertex  0.000000e+00  8.000000e+00  1.000000e+00
     vertex  5.000000e+00  8.000000e+00  1.000000e+00
   endloop
 endfacet
 facet normal  2.099748e-14  1.000000e+00  0.000000e+00
   outer loop
     vertex  0.000000e+00  8.000000e+00  4.500000e+00
     vertex -3.045549e+00  8.000000e+00  4.500000e+00
     vertex -3.045549e+00  8.000000e+00  6.500000e+00
   endloop
 endfacet
 facet normal  7.948351e-15  1.000000e+00 -1.987088e-14
   outer loop
     vertex  5.000000e+00  8.000000e+00  6.500000e+00
     vertex  0.000000e+00  8.000000e+00  4.500000e+00
     vertex -3.045549e+00  8.000000e+00  6.500000e+00
   endloop
 endfacet
 facet normal  0.000000e+00  1.000000e+00  0.000000e+00
   outer loop
     vertex  5.000000e+00  8.000000e+00  1.000000e+00
     vertex  0.000000e+00  8.000000e+00  1.000000e+00
     vertex  0.000000e+00  8.000000e+00  4.500000e+00
   endloop
 endfacet
 facet normal  0.000000e+00  1.000000e+00 -0.000000e+00
   outer loop
     vertex  5.000000e+00  8.000000e+00  1.000000e+00
     vertex  0.000000e+00  8.000000e+00  4.500000e+00
     vertex  5.000000e+00  8.000000e+00  6.500000e+00
   endloop
 endfacet
 facet normal -0.000000e+00  0.000000e+00  1.000000e+00
   outer loop
     vertex -5.249120e+00  5.386358e+00  6.500000e+00
     vertex  5.000000e+00  0.000000e+00  6.500000e+00
     vertex -4.754439e+00  5.861094e+00  6.500000e+00
   endloop
 endfacet
 facet normal  0.000000e+00  0.000000e+00  1.000000e+00
   outer loop
     vertex -4.285474e+00  6.361251e+00  6.500000e+00
     vertex -4.754439e+00  5.861094e+00  6.500000e+00
     vertex  5.000000e+00  0.000000e+00  6.500000e+00
   endloop
 endfacet
 facet normal -0.000000e+00  0.000000e+00  1.000000e+00
   outer loop
     vertex -5.768143e+00  4.938363e+00  6.500000e+00
     vertex  5.000000e+00  0.000000e+00  6.500000e+00
     vertex -5.249120e+00  5.386358e+00  6.500000e+00
   endloop
 endfacet
 facet normal  0.000000e+00  0.000000e+00  1.000000e+00
   outer loop
     vertex -3.843531e+00  6.885436e+00  6.500000e+00
     vertex -4.285474e+00  6.361251e+00  6.500000e+00
     vertex  5.000000e+00  0.000000e+00  6.500000e+00
   endloop
 endfacet
 facet normal -0.000000e+00  0.000000e+00  1.000000e+00
   outer loop
     vertex -6.310063e+00  4.518356e+00  6.500000e+00
     vertex  5.000000e+00  0.000000e+00  6.500000e+00
     vertex -5.768143e+00  4.938363e+00  6.500000e+00
   endloop
 endfacet
 facet normal -0.000000e+00  0.000000e+00  1.000000e+00
   outer loop
     vertex -3.429839e+00  7.432193e+00  6.500000e+00
     vertex  5.000000e+00  0.000000e+00  6.500000e+00
     vertex  5.000000e+00  8.000000e+00  6.500000e+00
   endloop
 endfacet
 facet normal  0.000000e+00  0.000000e+00  1.000000e+00
   outer loop
     vertex -3.429839e+00  7.432193e+00  6.500000e+00
     vertex -3.843531e+00  6.885436e+00  6.500000e+00
     vertex  5.000000e+00  0.000000e+00  6.500000e+00
   endloop
 endfacet
 facet normal -0.000000e+00  0.000000e+00  1.000000e+00
   outer loop
     vertex -6.873373e+00  4.127503e+00  6.500000e+00
     vertex  5.000000e+00  0.000000e+00  6.500000e+00
     vertex -6.310063e+00  4.518356e+00  6.500000e+00
   endloop
 endfacet
 facet normal  0.000000e+00  0.000000e+00  1.000000e+00
   outer loop
     vertex -3.045549e+00  8.000000e+00  6.500000e+00
     vertex -3.429839e+00  7.432193e+00  6.500000e+00
     vertex  5.000000e+00  8.000000e+00  6.500000e+00
   endloop
 endfacet
 facet normal -0.000000e+00  0.000000e+00  1.000000e+00
   outer loop
     vertex -7.456507e+00  3.766893e+00  6.500000e+00
     vertex  5.000000e+00  0.000000e+00  6.500000e+00
     vertex -6.873373e+00  4.127503e+00  6.500000e+00
   endloop
 endfacet
 facet normal -0.000000e+00  0.000000e+00  1.000000e+00
   outer loop
     vertex -8.057841e+00  3.437529e+00  6.500000e+00
     vertex  5.000000e+00  0.000000e+00  6.500000e+00
     vertex -7.456507e+00  3.766893e+00  6.500000e+00
   endloop
 endfacet
 facet normal -0.000000e+00  0.000000e+00  1.000000e+00
   outer loop
     vertex -8.675704e+00  3.140326e+00  6.500000e+00
     vertex  5.000000e+00  0.000000e+00  6.500000e+00
     vertex -8.057841e+00  3.437529e+00  6.500000e+00
   endloop
 endfacet
 facet normal -0.000000e+00  0.000000e+00  1.000000e+00
   outer loop
     vertex -9.308377e+00  2.876112e+00  6.500000e+00
     vertex  5.000000e+00  0.000000e+00  6.500000e+00
     vertex -8.675704e+00  3.140326e+00  6.500000e+00
   endloop
 endfacet
 facet normal -0.000000e+00  0.000000e+00  1.000000e+00
   outer loop
     vertex -9.954099e+00  2.645621e+00  6.500000e+00
     vertex  5.000000e+00  0.000000e+00  6.500000e+00
     vertex -9.308377e+00  2.876112e+00  6.500000e+00
   endloop
 endfacet
 facet normal -0.000000e+00  0.000000e+00  1.000000e+00
   outer loop
     vertex -1.061108e+01  2.449494e+00  6.500000e+00
     vertex  5.000000e+00  0.000000e+00  6.500000e+00
     vertex -9.954099e+00  2.645621e+00  6.500000e+00
   endloop
 endfacet
 facet normal -0.000000e+00  0.000000e+00  1.000000e+00
   outer loop
     vertex -1.127748e+01  2.288278e+00  6.500000e+00
     vertex  5.000000e+00  0.000000e+00  6.500000e+00
     vertex -1.061108e+01  2.449494e+00  6.500000e+00
   endloop
 endfacet
 facet normal -0.000000e+00  0.000000e+00  1.000000e+00
   outer loop
     vertex -1.195146e+01  2.162420e+00  6.500000e+00
     vertex  5.000000e+00  0.000000e+00  6.500000e+00
     vertex -1.127748e+01  2.288278e+00  6.500000e+00
   endloop
 endfacet
 facet normal -0.000000e+00  0.000000e+00  1.000000e+00
   outer loop
     vertex -1.263113e+01  2.072270e+00  6.500000e+00
     vertex  5.000000e+00  0.000000e+00  6.500000e+00
     vertex -1.195146e+01  2.162420e+00  6.500000e+00
   endloop
 endfacet
 facet normal -0.000000e+00  0.000000e+00  1.000000e+00
   outer loop
     vertex -1.331461e+01  2.018080e+00  6.500000e+00
     vertex  5.000000e+00  0.000000e+00  6.500000e+00
     vertex -1.263113e+01  2.072270e+00  6.500000e+00
   endloop
 endfacet
 facet normal -0.000000e+00  0.000000e+00  1.000000e+00
   outer loop
     vertex -1.400000e+01  2.000000e+00  6.500000e+00
     vertex  5.000000e+00  0.000000e+00  6.500000e+00
     vertex -1.331461e+01  2.018080e+00  6.500000e+00
   endloop
 endfacet
 facet normal -0.000000e+00  0.000000e+00  1.000000e+00
   outer loop
     vertex -1.824912e+01  5.386358e+00  6.500000e+00
     vertex -1.400000e+01  2.000000e+00  6.500000e+00
     vertex -1.775444e+01  5.861094e+00  6.500000e+00
   endloop
 endfacet
 facet normal  0.000000e+00  0.000000e+00  1.000000e+00
   outer loop
     vertex -1.728547e+01  6.361251e+00  6.500000e+00
     vertex -1.775444e+01  5.861094e+00  6.500000e+00
     vertex -1.400000e+01  2.000000e+00  6.500000e+00
   endloop
 endfacet
 facet normal -0.000000e+00  0.000000e+00  1.000000e+00
   outer loop
     vertex -1.876814e+01  4.938363e+00  6.500000e+00
     vertex -1.400000e+01  2.000000e+00  6.500000e+00
     vertex -1.824912e+01  5.386358e+00  6.500000e+00
   endloop
 endfacet
 facet normal  0.000000e+00  0.000000e+00  1.000000e+00
   outer loop
     vertex -1.684353e+01  6.885436e+00  6.500000e+00
     vertex -1.728547e+01  6.361251e+00  6.500000e+00
     vertex -1.400000e+01  2.000000e+00  6.500000e+00
   endloop
 endfacet
 facet normal -0.000000e+00  0.000000e+00  1.000000e+00
   outer loop
     vertex -1.684353e+01  6.885436e+00  6.500000e+00
     vertex -1.400000e+01  2.000000e+00  6.500000e+00
     vertex -1.400000e+01  8.000000e+00  6.500000e+00
   endloop
 endfacet
 facet normal -0.000000e+00  0.000000e+00  1.000000e+00
   outer loop
     vertex -1.931006e+01  4.518356e+00  6.500000e+00
     vertex -1.400000e+01  2.000000e+00  6.500000e+00
     vertex -1.876814e+01  4.938363e+00  6.500000e+00
   endloop
 endfacet
 facet normal -0.000000e+00  0.000000e+00  1.000000e+00
   outer loop
     vertex -1.642984e+01  7.432193e+00  6.500000e+00
     vertex -1.684353e+01  6.885436e+00  6.500000e+00
     vertex -1.400000e+01  8.000000e+00  6.500000e+00
   endloop
 endfacet
 facet normal -0.000000e+00  0.000000e+00  1.000000e+00
   outer loop
     vertex -1.987337e+01  4.127503e+00  6.500000e+00
     vertex -1.400000e+01  2.000000e+00  6.500000e+00
     vertex -1.931006e+01  4.518356e+00  6.500000e+00
   endloop
 endfacet
 facet normal  0.000000e+00  0.000000e+00  1.000000e+00
   outer loop
     vertex -1.604555e+01  8.000000e+00  6.500000e+00
     vertex -1.642984e+01  7.432193e+00  6.500000e+00
     vertex -1.400000e+01  8.000000e+00  6.500000e+00
   endloop
 endfacet
 facet normal -0.000000e+00  0.000000e+00  1.000000e+00
   outer loop
     vertex -2.045651e+01  3.766893e+00  6.500000e+00
     vertex -1.400000e+01  2.000000e+00  6.500000e+00
     vertex -1.987337e+01  4.127503e+00  6.500000e+00
   endloop
 endfacet
 facet normal -0.000000e+00  0.000000e+00  1.000000e+00
   outer loop
     vertex -2.105784e+01  3.437529e+00  6.500000e+00
     vertex -1.400000e+01  2.000000e+00  6.500000e+00
     vertex -2.045651e+01  3.766893e+00  6.500000e+00
   endloop
 endfacet
 facet normal -0.000000e+00  0.000000e+00  1.000000e+00
   outer loop
     vertex -2.167570e+01  3.140326e+00  6.500000e+00
     vertex -1.400000e+01  2.000000e+00  6.500000e+00
     vertex -2.105784e+01  3.437529e+00  6.500000e+00
   endloop
 endfacet
 facet normal -0.000000e+00  0.000000e+00  1.000000e+00
   outer loop
     vertex -2.230838e+01  2.876112e+00  6.500000e+00
     vertex -1.400000e+01  2.000000e+00  6.500000e+00
     vertex -2.167570e+01  3.140326e+00  6.500000e+00
   endloop
 endfacet
 facet normal -0.000000e+00  0.000000e+00  1.000000e+00
   outer loop
     vertex -2.295410e+01  2.645621e+00  6.500000e+00
     vertex -1.400000e+01  2.000000e+00  6.500000e+00
     vertex -2.230838e+01  2.876112e+00  6.500000e+00
   endloop
 endfacet
 facet normal -0.000000e+00  0.000000e+00  1.000000e+00
   outer loop
     vertex -2.361108e+01  2.449494e+00  6.500000e+00
     vertex -1.400000e+01  2.000000e+00  6.500000e+00
     vertex -2.295410e+01  2.645621e+00  6.500000e+00
   endloop
 endfacet
 facet normal -0.000000e+00  0.000000e+00  1.000000e+00
   outer loop
     vertex -2.427748e+01  2.288278e+00  6.500000e+00
     vertex -1.400000e+01  2.000000e+00  6.500000e+00
     vertex -2.361108e+01  2.449494e+00  6.500000e+00
   endloop
 endfacet
 facet normal -0.000000e+00  0.000000e+00  1.000000e+00
   outer loop
     vertex -2.495146e+01  2.162420e+00  6.500000e+00
     vertex -1.400000e+01  2.000000e+00  6.500000e+00
     vertex -2.427748e+01  2.288278e+00  6.500000e+00
   endloop
 endfacet
 facet normal -0.000000e+00  0.000000e+00  1.000000e+00
   outer loop
     vertex -2.563113e+01  2.072270e+00  6.500000e+00
     vertex -1.400000e+01  2.000000e+00  6.500000e+00
     vertex -2.495146e+01  2.162420e+00  6.500000e+00
   endloop
 endfacet
 facet normal -0.000000e+00  0.000000e+00  1.000000e+00
   outer loop
     vertex -2.631461e+01  2.018080e+00  6.500000e+00
     vertex -1.400000e+01  2.000000e+00  6.500000e+00
     vertex -2.563113e+01  2.072270e+00  6.500000e+00
   endloop
 endfacet
 facet normal -0.000000e+00  0.000000e+00  1.000000e+00
   outer loop
     vertex -3.129495e+01  5.344840e+00  6.500000e+00
     vertex -2.700000e+01  2.000000e+00  6.500000e+00
     vertex -3.078928e+01  5.825977e+00  6.500000e+00
   endloop
 endfacet
 facet normal  0.000000e+00  0.000000e+00  1.000000e+00
   outer loop
     vertex -3.031017e+01  6.333559e+00  6.500000e+00
     vertex -3.078928e+01  5.825977e+00  6.500000e+00
     vertex -2.700000e+01  2.000000e+00  6.500000e+00
   endloop
 endfacet
 facet normal -0.000000e+00  0.000000e+00  1.000000e+00
   outer loop
     vertex -3.182571e+01  4.891538e+00  6.500000e+00
     vertex -2.700000e+01  2.000000e+00  6.500000e+00
     vertex -3.129495e+01  5.344840e+00  6.500000e+00
   endloop
 endfacet
 facet normal -0.000000e+00  0.000000e+00  1.000000e+00
   outer loop
     vertex -2.985899e+01  6.866126e+00  6.500000e+00
     vertex -2.700000e+01  2.000000e+00  6.500000e+00
     vertex -2.700000e+01  8.000000e+00  6.500000e+00
   endloop
 endfacet
 facet normal  0.000000e+00  0.000000e+00  1.000000e+00
   outer loop
     vertex -2.985899e+01  6.866126e+00  6.500000e+00
     vertex -3.031017e+01  6.333559e+00  6.500000e+00
     vertex -2.700000e+01  2.000000e+00  6.500000e+00
   endloop
 endfacet
 facet normal -0.000000e+00  0.000000e+00  1.000000e+00
   outer loop
     vertex -3.238004e+01  4.467376e+00  6.500000e+00
     vertex -2.700000e+01  2.000000e+00  6.500000e+00
     vertex -3.182571e+01  4.891538e+00  6.500000e+00
   endloop
 endfacet
 facet normal -0.000000e+00  0.000000e+00  1.000000e+00
   outer loop
     vertex -2.943704e+01  7.422140e+00  6.500000e+00
     vertex -2.985899e+01  6.866126e+00  6.500000e+00
     vertex -2.700000e+01  8.000000e+00  6.500000e+00
   endloop
 endfacet
 facet normal -0.000000e+00  0.000000e+00  1.000000e+00
   outer loop
     vertex -3.295633e+01  4.073578e+00  6.500000e+00
     vertex -2.700000e+01  2.000000e+00  6.500000e+00
     vertex -3.238004e+01  4.467376e+00  6.500000e+00
   endloop
 endfacet
 facet normal  0.000000e+00  0.000000e+00  1.000000e+00
   outer loop
     vertex -2.904555e+01  8.000000e+00  6.500000e+00
     vertex -2.943704e+01  7.422140e+00  6.500000e+00
     vertex -2.700000e+01  8.000000e+00  6.500000e+00
   endloop
 endfacet
 facet normal -0.000000e+00  0.000000e+00  1.000000e+00
   outer loop
     vertex -3.355293e+01  3.711278e+00  6.500000e+00
     vertex -2.700000e+01  2.000000e+00  6.500000e+00
     vertex -3.295633e+01  4.073578e+00  6.500000e+00
   endloop
 endfacet
 facet normal -0.000000e+00  0.000000e+00  1.000000e+00
   outer loop
     vertex -3.416811e+01  3.381520e+00  6.500000e+00
     vertex -2.700000e+01  2.000000e+00  6.500000e+00
     vertex -3.355293e+01  3.711278e+00  6.500000e+00
   endloop
 endfacet
 facet normal -0.000000e+00  0.000000e+00  1.000000e+00
   outer loop
     vertex -3.480011e+01  3.085257e+00  6.500000e+00
     vertex -2.700000e+01  2.000000e+00  6.500000e+00
     vertex -3.416811e+01  3.381520e+00  6.500000e+00
   endloop
 endfacet
 facet normal -0.000000e+00  0.000000e+00  1.000000e+00
   outer loop
     vertex -3.544709e+01  2.823341e+00  6.500000e+00
     vertex -2.700000e+01  2.000000e+00  6.500000e+00
     vertex -3.480011e+01  3.085257e+00  6.500000e+00
   endloop
 endfacet
 facet normal -0.000000e+00  0.000000e+00  1.000000e+00
   outer loop
     vertex -3.610720e+01  2.596528e+00  6.500000e+00
     vertex -2.700000e+01  2.000000e+00  6.500000e+00
     vertex -3.544709e+01  2.823341e+00  6.500000e+00
   endloop
 endfacet
 facet normal -0.000000e+00  0.000000e+00  1.000000e+00
   outer loop
     vertex -3.677854e+01  2.405471e+00  6.500000e+00
     vertex -2.700000e+01  2.000000e+00  6.500000e+00
     vertex -3.610720e+01  2.596528e+00  6.500000e+00
   endloop
 endfacet
 facet normal -0.000000e+00  0.000000e+00  1.000000e+00
   outer loop
     vertex -3.745915e+01  2.250721e+00  6.500000e+00
     vertex -2.700000e+01  2.000000e+00  6.500000e+00
     vertex -3.677854e+01  2.405471e+00  6.500000e+00
   endloop
 endfacet
 facet normal  0.000000e+00  0.000000e+00  1.000000e+00
   outer loop
     vertex -4.300000e+01  0.000000e+00  6.500000e+00
     vertex -4.023498e+01  2.002124e+00  6.500000e+00
     vertex -4.093226e+01  2.033471e+00  6.500000e+00
   endloop
 endfacet
 facet normal  0.000000e+00  0.000000e+00  1.000000e+00
   outer loop
     vertex -4.300000e+01  0.000000e+00  6.500000e+00
     vertex -3.953701e+01  2.008247e+00  6.500000e+00
     vertex -4.023498e+01  2.002124e+00  6.500000e+00
   endloop
 endfacet
 facet normal  0.000000e+00  0.000000e+00  1.000000e+00
   outer loop
     vertex -4.300000e+01  0.000000e+00  6.500000e+00
     vertex -3.884038e+01  2.051823e+00  6.500000e+00
     vertex -3.953701e+01  2.008247e+00  6.500000e+00
   endloop
 endfacet
 facet normal  0.000000e+00  0.000000e+00  1.000000e+00
   outer loop
     vertex -4.300000e+01  0.000000e+00  6.500000e+00
     vertex -3.814710e+01  2.132725e+00  6.500000e+00
     vertex -3.884038e+01  2.051823e+00  6.500000e+00
   endloop
 endfacet
 facet normal  0.000000e+00  0.000000e+00  1.000000e+00
   outer loop
     vertex -4.300000e+01  0.000000e+00  6.500000e+00
     vertex -3.745915e+01  2.250721e+00  6.500000e+00
     vertex -3.814710e+01  2.132725e+00  6.500000e+00
   endloop
 endfacet
 facet normal  0.000000e+00  0.000000e+00  1.000000e+00
   outer loop
     vertex -4.300000e+01  0.000000e+00  6.500000e+00
     vertex  5.000000e+00  0.000000e+00  6.500000e+00
     vertex -1.400000e+01  2.000000e+00  6.500000e+00
   endloop
 endfacet
 facet normal  0.000000e+00  0.000000e+00  1.000000e+00
   outer loop
     vertex -4.300000e+01  0.000000e+00  6.500000e+00
     vertex -2.631461e+01  2.018080e+00  6.500000e+00
     vertex -2.700000e+01  2.000000e+00  6.500000e+00
   endloop
 endfacet
 facet normal  0.000000e+00  0.000000e+00  1.000000e+00
   outer loop
     vertex -4.300000e+01  0.000000e+00  6.500000e+00
     vertex -1.400000e+01  2.000000e+00  6.500000e+00
     vertex -2.631461e+01  2.018080e+00  6.500000e+00
   endloop
 endfacet
 facet normal  0.000000e+00  0.000000e+00  1.000000e+00
   outer loop
     vertex -4.300000e+01  0.000000e+00  6.500000e+00
     vertex -2.700000e+01  2.000000e+00  6.500000e+00
     vertex -3.745915e+01  2.250721e+00  6.500000e+00
   endloop
 endfacet
 facet normal  0.000000e+00  0.000000e+00  1.000000e+00
   outer loop
     vertex -4.162686e+01  2.102197e+00  6.500000e+00
     vertex -4.300000e+01  0.000000e+00  6.500000e+00
     vertex -4.093226e+01  2.033471e+00  6.500000e+00
   endloop
 endfacet
 facet normal  0.000000e+00  0.000000e+00  1.000000e+00
   outer loop
     vertex -4.231677e+01  2.208105e+00  6.500000e+00
     vertex -4.300000e+01  0.000000e+00  6.500000e+00
     vertex -4.162686e+01  2.102197e+00  6.500000e+00
   endloop
 endfacet
 facet normal  0.000000e+00  0.000000e+00  1.000000e+00
   outer loop
     vertex -4.300000e+01  2.350889e+00  6.500000e+00
     vertex -4.300000e+01  0.000000e+00  6.500000e+00
     vertex -4.231677e+01  2.208105e+00  6.500000e+00
   endloop
 endfacet
 facet normal  0.000000e+00 -1.000000e+00  0.000000e+00
   outer loop
     vertex  0.000000e+00  0.000000e+00  4.500000e+00
     vertex  5.000000e+00  0.000000e+00  1.000000e+00
     vertex  5.000000e+00  0.000000e+00  6.500000e+00
   endloop
 endfacet
 facet normal  0.000000e+00 -1.000000e+00  0.000000e+00
   outer loop
     vertex  0.000000e+00  0.000000e+00  1.000000e+00
     vertex  5.000000e+00  0.000000e+00  1.000000e+00
     vertex  0.000000e+00  0.000000e+00  4.500000e+00
   endloop
 endfacet
 facet normal  0.000000e+00 -1.000000e+00  0.000000e+00
   outer loop
     vertex -4.300000e+01  0.000000e+00  6.500000e+00
     vertex  0.000000e+00  0.000000e+00  4.500000e+00
     vertex  5.000000e+00  0.000000e+00  6.500000e+00
   endloop
 endfacet
 facet normal  0.000000e+00 -1.000000e+00  0.000000e+00
   outer loop
     vertex -4.300000e+01  0.000000e+00  4.500000e+00
     vertex  0.000000e+00  0.000000e+00  4.500000e+00
     vertex -4.300000e+01  0.000000e+00  6.500000e+00
   endloop
 endfacet
 facet normal -0.000000e+00  0.000000e+00  1.000000e+00
   outer loop
     vertex  0.000000e+00  0.000000e+00  1.000000e+00
     vertex  5.000000e+00 -1.000000e-03  1.000000e+00
     vertex  5.000000e+00  0.000000e+00  1.000000e+00
   endloop
 endfacet
 facet normal  0.000000e+00  0.000000e+00  1.000000e+00
   outer loop
     vertex  0.000000e+00  0.000000e+00  1.000000e+00
     vertex  0.000000e+00 -1.000000e-03  1.000000e+00
     vertex  5.000000e+00 -1.000000e-03  1.000000e+00
   endloop
 endfacet
 facet normal  0.000000e+00 -7.071068e-01  7.071068e-01
   outer loop
     vertex  0.000000e+00 -1.000000e-03  1.000000e+00
     vertex  5.000000e+00 -5.000000e-01  5.010000e-01
     vertex  5.000000e+00 -1.000000e-03  1.000000e+00
   endloop
 endfacet
 facet normal  0.000000e+00 -7.071068e-01  7.071068e-01
   outer loop
     vertex  0.000000e+00 -1.000000e-03  1.000000e+00
     vertex  0.000000e+00 -5.000000e-01  5.010000e-01
     vertex  5.000000e+00 -5.000000e-01  5.010000e-01
   endloop
 endfacet
 facet normal  0.000000e+00 -1.000000e+00  0.000000e+00
   outer loop
     vertex  0.000000e+00 -5.000000e-01  0.000000e+00
     vertex  5.000000e+00 -5.000000e-01  0.000000e+00
     vertex  5.000000e+00 -5.000000e-01  5.010000e-01
   endloop
 endfacet
 facet normal  0.000000e+00 -1.000000e+00  0.000000e+00
   outer loop
     vertex  0.000000e+00 -5.000000e-01  0.000000e+00
     vertex  5.000000e+00 -5.000000e-01  5.010000e-01
     vertex  0.000000e+00 -5.000000e-01  5.010000e-01
   endloop
 endfacet
 facet normal  0.000000e+00  0.000000e+00 -1.000000e+00
   outer loop
     vertex  0.000000e+00  0.000000e+00  0.000000e+00
     vertex  5.000000e+00  0.000000e+00  0.000000e+00
     vertex  5.000000e+00 -5.000000e-01  0.000000e+00
   endloop
 endfacet
 facet normal  0.000000e+00  0.000000e+00 -1.000000e+00
   outer loop
     vertex  0.000000e+00  0.000000e+00  0.000000e+00
     vertex  5.000000e+00 -5.000000e-01  0.000000e+00
     vertex  0.000000e+00 -5.000000e-01  0.000000e+00
   endloop
 endfacet
 facet normal  0.000000e+00  0.000000e+00 -1.000000e+00
   outer loop
     vertex -5.249120e+00  5.386358e+00  4.500000e+00
     vertex -4.754439e+00  5.861094e+00  4.500000e+00
     vertex  0.000000e+00  0.000000e+00  4.500000e+00
   endloop
 endfacet
 facet normal  0.000000e+00 -0.000000e+00 -1.000000e+00
   outer loop
     vertex -4.285474e+00  6.361251e+00  4.500000e+00
     vertex  0.000000e+00  0.000000e+00  4.500000e+00
     vertex -4.754439e+00  5.861094e+00  4.500000e+00
   endloop
 endfacet
 facet normal  0.000000e+00  0.000000e+00 -1.000000e+00
   outer loop
     vertex -5.768143e+00  4.938363e+00  4.500000e+00
     vertex -5.249120e+00  5.386358e+00  4.500000e+00
     vertex  0.000000e+00  0.000000e+00  4.500000e+00
   endloop
 endfacet
 facet normal  0.000000e+00  0.000000e+00 -1.000000e+00
   outer loop
     vertex -3.843531e+00  6.885436e+00  4.500000e+00
     vertex  0.000000e+00  8.000000e+00  4.500000e+00
     vertex  0.000000e+00  0.000000e+00  4.500000e+00
   endloop
 endfacet
 facet normal  0.000000e+00 -0.000000e+00 -1.000000e+00
   outer loop
     vertex -3.843531e+00  6.885436e+00  4.500000e+00
     vertex  0.000000e+00  0.000000e+00  4.500000e+00
     vertex -4.285474e+00  6.361251e+00  4.500000e+00
   endloop
 endfacet
 facet normal  0.000000e+00  0.000000e+00 -1.000000e+00
   outer loop
     vertex -6.310063e+00  4.518356e+00  4.500000e+00
     vertex -5.768143e+00  4.938363e+00  4.500000e+00
     vertex  0.000000e+00  0.000000e+00  4.500000e+00
   endloop
 endfacet
 facet normal  0.000000e+00 -0.000000e+00 -1.000000e+00
   outer loop
     vertex -3.429839e+00  7.432193e+00  4.500000e+00
     vertex  0.000000e+00  8.000000e+00  4.500000e+00
     vertex -3.843531e+00  6.885436e+00  4.500000e+00
   endloop
 endfacet
 facet normal  0.000000e+00  0.000000e+00 -1.000000e+00
   outer loop
     vertex -6.873373e+00  4.127503e+00  4.500000e+00
     vertex -6.310063e+00  4.518356e+00  4.500000e+00
     vertex  0.000000e+00  0.000000e+00  4.500000e+00
   endloop
 endfacet
 facet normal  0.000000e+00 -0.000000e+00 -1.000000e+00
   outer loop
     vertex -3.045549e+00  8.000000e+00  4.500000e+00
     vertex  0.000000e+00  8.000000e+00  4.500000e+00
     vertex -3.429839e+00  7.432193e+00  4.500000e+00
   endloop
 endfacet
 facet normal  0.000000e+00  0.000000e+00 -1.000000e+00
   outer loop
     vertex -7.456507e+00  3.766893e+00  4.500000e+00
     vertex -6.873373e+00  4.127503e+00  4.500000e+00
     vertex  0.000000e+00  0.000000e+00  4.500000e+00
   endloop
 endfacet
 facet normal  0.000000e+00  0.000000e+00 -1.000000e+00
   outer loop
     vertex -8.057841e+00  3.437529e+00  4.500000e+00
     vertex -7.456507e+00  3.766893e+00  4.500000e+00
     vertex  0.000000e+00  0.000000e+00  4.500000e+00
   endloop
 endfacet
 facet normal  0.000000e+00  0.000000e+00 -1.000000e+00
   outer loop
     vertex -8.675704e+00  3.140326e+00  4.500000e+00
     vertex -8.057841e+00  3.437529e+00  4.500000e+00
     vertex  0.000000e+00  0.000000e+00  4.500000e+00
   endloop
 endfacet
 facet normal  0.000000e+00  0.000000e+00 -1.000000e+00
   outer loop
     vertex -9.308377e+00  2.876112e+00  4.500000e+00
     vertex -8.675704e+00  3.140326e+00  4.500000e+00
     vertex  0.000000e+00  0.000000e+00  4.500000e+00
   endloop
 endfacet
 facet normal  0.000000e+00  0.000000e+00 -1.000000e+00
   outer loop
     vertex -9.954099e+00  2.645621e+00  4.500000e+00
     vertex -9.308377e+00  2.876112e+00  4.500000e+00
     vertex  0.000000e+00  0.000000e+00  4.500000e+00
   endloop
 endfacet
 facet normal  0.000000e+00  0.000000e+00 -1.000000e+00
   outer loop
     vertex -1.061108e+01  2.449494e+00  4.500000e+00
     vertex -9.954099e+00  2.645621e+00  4.500000e+00
     vertex  0.000000e+00  0.000000e+00  4.500000e+00
   endloop
 endfacet
 facet normal  0.000000e+00  0.000000e+00 -1.000000e+00
   outer loop
     vertex -1.127748e+01  2.288278e+00  4.500000e+00
     vertex -1.061108e+01  2.449494e+00  4.500000e+00
     vertex  0.000000e+00  0.000000e+00  4.500000e+00
   endloop
 endfacet
 facet normal  0.000000e+00  0.000000e+00 -1.000000e+00
   outer loop
     vertex -1.195146e+01  2.162420e+00  4.500000e+00
     vertex -1.127748e+01  2.288278e+00  4.500000e+00
     vertex  0.000000e+00  0.000000e+00  4.500000e+00
   endloop
 endfacet
 facet normal  0.000000e+00  0.000000e+00 -1.000000e+00
   outer loop
     vertex -1.263113e+01  2.072270e+00  4.500000e+00
     vertex -1.195146e+01  2.162420e+00  4.500000e+00
     vertex  0.000000e+00  0.000000e+00  4.500000e+00
   endloop
 endfacet
 facet normal  0.000000e+00  0.000000e+00 -1.000000e+00
   outer loop
     vertex -1.331461e+01  2.018080e+00  4.500000e+00
     vertex -1.263113e+01  2.072270e+00  4.500000e+00
     vertex  0.000000e+00  0.000000e+00  4.500000e+00
   endloop
 endfacet
 facet normal  0.000000e+00  0.000000e+00 -1.000000e+00
   outer loop
     vertex -1.400000e+01  2.000000e+00  4.500000e+00
     vertex -1.331461e+01  2.018080e+00  4.500000e+00
     vertex  0.000000e+00  0.000000e+00  4.500000e+00
   endloop
 endfacet
 facet normal  0.000000e+00  0.000000e+00 -1.000000e+00
   outer loop
     vertex -1.824912e+01  5.386358e+00  4.500000e+00
     vertex -1.775444e+01  5.861094e+00  4.500000e+00
     vertex -1.400000e+01  2.000000e+00  4.500000e+00
   endloop
 endfacet
 facet normal  0.000000e+00 -0.000000e+00 -1.000000e+00
   outer loop
     vertex -1.728547e+01  6.361251e+00  4.500000e+00
     vertex -1.400000e+01  2.000000e+00  4.500000e+00
     vertex -1.775444e+01  5.861094e+00  4.500000e+00
   endloop
 endfacet
 facet normal  0.000000e+00  0.000000e+00 -1.000000e+00
   outer loop
     vertex -1.876814e+01  4.938363e+00  4.500000e+00
     vertex -1.824912e+01  5.386358e+00  4.500000e+00
     vertex -1.400000e+01  2.000000e+00  4.500000e+00
   endloop
 endfacet
 facet normal  0.000000e+00 -0.000000e+00 -1.000000e+00
   outer loop
     vertex -1.684353e+01  6.885436e+00  4.500000e+00
     vertex -1.400000e+01  2.000000e+00  4.500000e+00
     vertex -1.728547e+01  6.361251e+00  4.500000e+00
   endloop
 endfacet
 facet normal  0.000000e+00  0.000000e+00 -1.000000e+00
   outer loop
     vertex -1.684353e+01  6.885436e+00  4.500000e+00
     vertex -1.400000e+01  8.000000e+00  4.500000e+00
     vertex -1.400000e+01  2.000000e+00  4.500000e+00
   endloop
 endfacet
 facet normal  0.000000e+00  0.000000e+00 -1.000000e+00
   outer loop
     vertex -1.931006e+01  4.518356e+00  4.500000e+00
     vertex -1.876814e+01  4.938363e+00  4.500000e+00
     vertex -1.400000e+01  2.000000e+00  4.500000e+00
   endloop
 endfacet
 facet normal  0.000000e+00 -0.000000e+00 -1.000000e+00
   outer loop
     vertex -1.642984e+01  7.432193e+00  4.500000e+00
     vertex -1.400000e+01  8.000000e+00  4.500000e+00
     vertex -1.684353e+01  6.885436e+00  4.500000e+00
   endloop
 endfacet
 facet normal  0.000000e+00  0.000000e+00 -1.000000e+00
   outer loop
     vertex -1.987337e+01  4.127503e+00  4.500000e+00
     vertex -1.931006e+01  4.518356e+00  4.500000e+00
     vertex -1.400000e+01  2.000000e+00  4.500000e+00
   endloop
 endfacet
 facet normal  0.000000e+00 -0.000000e+00 -1.000000e+00
   outer loop
     vertex -1.604555e+01  8.000000e+00  4.500000e+00
     vertex -1.400000e+01  8.000000e+00  4.500000e+00
     vertex -1.642984e+01  7.432193e+00  4.500000e+00
   endloop
 endfacet
 facet normal  0.000000e+00  0.000000e+00 -1.000000e+00
   outer loop
     vertex -2.045651e+01  3.766893e+00  4.500000e+00
     vertex -1.987337e+01  4.127503e+00  4.500000e+00
     vertex -1.400000e+01  2.000000e+00  4.500000e+00
   endloop
 endfacet
 facet normal  0.000000e+00  0.000000e+00 -1.000000e+00
   outer loop
     vertex -2.105784e+01  3.437529e+00  4.500000e+00
     vertex -2.045651e+01  3.766893e+00  4.500000e+00
     vertex -1.400000e+01  2.000000e+00  4.500000e+00
   endloop
 endfacet
 facet normal  0.000000e+00  0.000000e+00 -1.000000e+00
   outer loop
     vertex -2.167570e+01  3.140326e+00  4.500000e+00
     vertex -2.105784e+01  3.437529e+00  4.500000e+00
     vertex -1.400000e+01  2.000000e+00  4.500000e+00
   endloop
 endfacet
 facet normal  0.000000e+00  0.000000e+00 -1.000000e+00
   outer loop
     vertex -2.230838e+01  2.876112e+00  4.500000e+00
     vertex -2.167570e+01  3.140326e+00  4.500000e+00
     vertex -1.400000e+01  2.000000e+00  4.500000e+00
   endloop
 endfacet
 facet normal  0.000000e+00  0.000000e+00 -1.000000e+00
   outer loop
     vertex -2.295410e+01  2.645621e+00  4.500000e+00
     vertex -2.230838e+01  2.876112e+00  4.500000e+00
     vertex -1.400000e+01  2.000000e+00  4.500000e+00
   endloop
 endfacet
 facet normal  0.000000e+00  0.000000e+00 -1.000000e+00
   outer loop
     vertex -2.361108e+01  2.449494e+00  4.500000e+00
     vertex -2.295410e+01  2.645621e+00  4.500000e+00
     vertex -1.400000e+01  2.000000e+00  4.500000e+00
   endloop
 endfacet
 facet normal  0.000000e+00  0.000000e+00 -1.000000e+00
   outer loop
     vertex -2.427748e+01  2.288278e+00  4.500000e+00
     vertex -2.361108e+01  2.449494e+00  4.500000e+00
     vertex -1.400000e+01  2.000000e+00  4.500000e+00
   endloop
 endfacet
 facet normal  0.000000e+00  0.000000e+00 -1.000000e+00
   outer loop
     vertex -2.495146e+01  2.162420e+00  4.500000e+00
     vertex -2.427748e+01  2.288278e+00  4.500000e+00
     vertex -1.400000e+01  2.000000e+00  4.500000e+00
   endloop
 endfacet
 facet normal  0.000000e+00  0.000000e+00 -1.000000e+00
   outer loop
     vertex -2.563113e+01  2.072270e+00  4.500000e+00
     vertex -2.495146e+01  2.162420e+00  4.500000e+00
     vertex -1.400000e+01  2.000000e+00  4.500000e+00
   endloop
 endfacet
 facet normal  0.000000e+00  0.000000e+00 -1.000000e+00
   outer loop
     vertex -2.631461e+01  2.018080e+00  4.500000e+00
     vertex -1.400000e+01  2.000000e+00  4.500000e+00
     vertex  0.000000e+00  0.000000e+00  4.500000e+00
   endloop
 endfacet
 facet normal  0.000000e+00  0.000000e+00 -1.000000e+00
   outer loop
     vertex -2.631461e+01  2.018080e+00  4.500000e+00
     vertex -2.563113e+01  2.072270e+00  4.500000e+00
     vertex -1.400000e+01  2.000000e+00  4.500000e+00
   endloop
 endfacet
 facet normal  0.000000e+00  0.000000e+00 -1.000000e+00
   outer loop
     vertex -3.129495e+01  5.344840e+00  4.500000e+00
     vertex -3.078928e+01  5.825977e+00  4.500000e+00
     vertex -2.700000e+01  2.000000e+00  4.500000e+00
   endloop
 endfacet
 facet normal  0.000000e+00 -0.000000e+00 -1.000000e+00
   outer loop
     vertex -3.031017e+01  6.333559e+00  4.500000e+00
     vertex -2.700000e+01  2.000000e+00  4.500000e+00
     vertex -3.078928e+01  5.825977e+00  4.500000e+00
   endloop
 endfacet
 facet normal  0.000000e+00  0.000000e+00 -1.000000e+00
   outer loop
     vertex -3.182571e+01  4.891538e+00  4.500000e+00
     vertex -3.129495e+01  5.344840e+00  4.500000e+00
     vertex -2.700000e+01  2.000000e+00  4.500000e+00
   endloop
 endfacet
 facet normal  0.000000e+00  0.000000e+00 -1.000000e+00
   outer loop
     vertex -2.985899e+01  6.866126e+00  4.500000e+00
     vertex -2.700000e+01  8.000000e+00  4.500000e+00
     vertex -2.700000e+01  2.000000e+00  4.500000e+00
   endloop
 endfacet
 facet normal  0.000000e+00 -0.000000e+00 -1.000000e+00
   outer loop
     vertex -2.985899e+01  6.866126e+00  4.500000e+00
     vertex -2.700000e+01  2.000000e+00  4.500000e+00
     vertex -3.031017e+01  6.333559e+00  4.500000e+00
   endloop
 endfacet
 facet normal  0.000000e+00  0.000000e+00 -1.000000e+00
   outer loop
     vertex -3.238004e+01  4.467376e+00  4.500000e+00
     vertex -3.182571e+01  4.891538e+00  4.500000e+00
     vertex -2.700000e+01  2.000000e+00  4.500000e+00
   endloop
 endfacet
 facet normal  0.000000e+00 -0.000000e+00 -1.000000e+00
   outer loop
     vertex -2.943704e+01  7.422140e+00  4.500000e+00
     vertex -2.700000e+01  8.000000e+00  4.500000e+00
     vertex -2.985899e+01  6.866126e+00  4.500000e+00
   endloop
 endfacet
 facet normal  0.000000e+00  0.000000e+00 -1.000000e+00
   outer loop
     vertex -3.295633e+01  4.073578e+00  4.500000e+00
     vertex -3.238004e+01  4.467376e+00  4.500000e+00
     vertex -2.700000e+01  2.000000e+00  4.500000e+00
   endloop
 endfacet
 facet normal  0.000000e+00 -0.000000e+00 -1.000000e+00
   outer loop
     vertex -2.904555e+01  8.000000e+00  4.500000e+00
     vertex -2.700000e+01  8.000000e+00  4.500000e+00
     vertex -2.943704e+01  7.422140e+00  4.500000e+00
   endloop
 endfacet
 facet normal  0.000000e+00  0.000000e+00 -1.000000e+00
   outer loop
     vertex -3.355293e+01  3.711278e+00  4.500000e+00
     vertex -3.295633e+01  4.073578e+00  4.500000e+00
     vertex -2.700000e+01  2.000000e+00  4.500000e+00
   endloop
 endfacet
 facet normal  0.000000e+00  0.000000e+00 -1.000000e+00
   outer loop
     vertex -3.416811e+01  3.381520e+00  4.500000e+00
     vertex -3.355293e+01  3.711278e+00  4.500000e+00
     vertex -2.700000e+01  2.000000e+00  4.500000e+00
   endloop
 endfacet
 facet normal  0.000000e+00  0.000000e+00 -1.000000e+00
   outer loop
     vertex -3.480011e+01  3.085257e+00  4.500000e+00
     vertex -3.416811e+01  3.381520e+00  4.500000e+00
     vertex -2.700000e+01  2.000000e+00  4.500000e+00
   endloop
 endfacet
 facet normal  0.000000e+00  0.000000e+00 -1.000000e+00
   outer loop
     vertex -3.544709e+01  2.823341e+00  4.500000e+00
     vertex -3.480011e+01  3.085257e+00  4.500000e+00
     vertex -2.700000e+01  2.000000e+00  4.500000e+00
   endloop
 endfacet
 facet normal  0.000000e+00  0.000000e+00 -1.000000e+00
   outer loop
     vertex -3.610720e+01  2.596528e+00  4.500000e+00
     vertex -3.544709e+01  2.823341e+00  4.500000e+00
     vertex -2.700000e+01  2.000000e+00  4.500000e+00
   endloop
 endfacet
 facet normal  0.000000e+00  0.000000e+00 -1.000000e+00
   outer loop
     vertex -3.677854e+01  2.405471e+00  4.500000e+00
     vertex -3.610720e+01  2.596528e+00  4.500000e+00
     vertex -2.700000e+01  2.000000e+00  4.500000e+00
   endloop
 endfacet
 facet normal  0.000000e+00  0.000000e+00 -1.000000e+00
   outer loop
     vertex -3.745915e+01  2.250721e+00  4.500000e+00
     vertex -3.677854e+01  2.405471e+00  4.500000e+00
     vertex -2.700000e+01  2.000000e+00  4.500000e+00
   endloop
 endfacet
 facet normal  0.000000e+00  0.000000e+00 -1.000000e+00
   outer loop
     vertex -4.300000e+01  0.000000e+00  4.500000e+00
     vertex -4.093226e+01  2.033471e+00  4.500000e+00
     vertex -4.023498e+01  2.002124e+00  4.500000e+00
   endloop
 endfacet
 facet normal  0.000000e+00  0.000000e+00 -1.000000e+00
   outer loop
     vertex -4.300000e+01  0.000000e+00  4.500000e+00
     vertex -4.023498e+01  2.002124e+00  4.500000e+00
     vertex -3.953701e+01  2.008247e+00  4.500000e+00
   endloop
 endfacet
 facet normal  0.000000e+00  0.000000e+00 -1.000000e+00
   outer loop
     vertex -4.300000e+01  0.000000e+00  4.500000e+00
     vertex -3.953701e+01  2.008247e+00  4.500000e+00
     vertex -3.884038e+01  2.051823e+00  4.500000e+00
   endloop
 endfacet
 facet normal  0.000000e+00  0.000000e+00 -1.000000e+00
   outer loop
     vertex -4.300000e+01  0.000000e+00  4.500000e+00
     vertex -3.884038e+01  2.051823e+00  4.500000e+00
     vertex -3.814710e+01  2.132725e+00  4.500000e+00
   endloop
 endfacet
 facet normal  0.000000e+00  0.000000e+00 -1.000000e+00
   outer loop
     vertex -4.300000e+01  0.000000e+00  4.500000e+00
     vertex -3.814710e+01  2.132725e+00  4.500000e+00
     vertex -3.745915e+01  2.250721e+00  4.500000e+00
   endloop
 endfacet
 facet normal  0.000000e+00  0.000000e+00 -1.000000e+00
   outer loop
     vertex -4.300000e+01  0.000000e+00  4.500000e+00
     vertex -2.700000e+01  2.000000e+00  4.500000e+00
     vertex -2.631461e+01  2.018080e+00  4.500000e+00
   endloop
 endfacet
 facet normal  0.000000e+00  0.000000e+00 -1.000000e+00
   outer loop
     vertex -4.300000e+01  0.000000e+00  4.500000e+00
     vertex -2.631461e+01  2.018080e+00  4.500000e+00
     vertex  0.000000e+00  0.000000e+00  4.500000e+00
   endloop
 endfacet
 facet normal  0.000000e+00  0.000000e+00 -1.000000e+00
   outer loop
     vertex -4.300000e+01  0.000000e+00  4.500000e+00
     vertex -3.745915e+01  2.250721e+00  4.500000e+00
     vertex -2.700000e+01  2.000000e+00  4.500000e+00
   endloop
 endfacet
 facet normal  0.000000e+00 -0.000000e+00 -1.000000e+00
   outer loop
     vertex -4.162686e+01  2.102197e+00  4.500000e+00
     vertex -4.093226e+01  2.033471e+00  4.500000e+00
     vertex -4.300000e+01  0.000000e+00  4.500000e+00
   endloop
 endfacet
 facet normal  0.000000e+00 -0.000000e+00 -1.000000e+00
   outer loop
     vertex -4.231677e+01  2.208105e+00  4.500000e+00
     vertex -4.162686e+01  2.102197e+00  4.500000e+00
     vertex -4.300000e+01  0.000000e+00  4.500000e+00
   endloop
 endfacet
 facet normal  0.000000e+00 -0.000000e+00 -1.000000e+00
   outer loop
     vertex -4.300000e+01  2.350889e+00  4.500000e+00
     vertex -4.231677e+01  2.208105e+00  4.500000e+00
     vertex -4.300000e+01  0.000000e+00  4.500000e+00
   endloop
 endfacet
 facet normal -2.637026e-02  9.996522e-01  0.000000e+00
   outer loop
     vertex -1.331461e+01  2.018080e+00  6.500000e+00
     vertex -1.400000e+01  2.000000e+00  4.500000e+00
     vertex -1.400000e+01  2.000000e+00  6.500000e+00
   endloop
 endfacet
 facet normal -2.637026e-02  9.996522e-01  0.000000e+00
   outer loop
     vertex -1.331461e+01  2.018080e+00  6.500000e+00
     vertex -1.331461e+01  2.018080e+00  4.500000e+00
     vertex -1.400000e+01  2.000000e+00  4.500000e+00
   endloop
 endfacet
 facet normal -7.903743e-02  9.968716e-01  0.000000e+00
   outer loop
     vertex -1.263113e+01  2.072270e+00  6.500000e+00
     vertex -1.263113e+01  2.072270e+00  4.500000e+00
     vertex -1.331461e+01  2.018080e+00  4.500000e+00
   endloop
 endfacet
 facet normal -7.903743e-02  9.968716e-01  0.000000e+00
   outer loop
     vertex -1.263113e+01  2.072270e+00  6.500000e+00
     vertex -1.331461e+01  2.018080e+00  4.500000e+00
     vertex -1.331461e+01  2.018080e+00  6.500000e+00
   endloop
 endfacet
 facet normal -1.314847e-01  9.913182e-01  0.000000e+00
   outer loop
     vertex -1.195146e+01  2.162420e+00  6.500000e+00
     vertex -1.195146e+01  2.162420e+00  4.500000e+00
     vertex -1.263113e+01  2.072270e+00  4.500000e+00
   endloop
 endfacet
 facet normal -1.314847e-01  9.913182e-01  0.000000e+00
   outer loop
     vertex -1.195146e+01  2.162420e+00  6.500000e+00
     vertex -1.263113e+01  2.072270e+00  4.500000e+00
     vertex -1.263113e+01  2.072270e+00  6.500000e+00
   endloop
 endfacet
 facet normal -1.835663e-01  9.830073e-01  0.000000e+00
   outer loop
     vertex -1.127748e+01  2.288278e+00  6.500000e+00
     vertex -1.127748e+01  2.288278e+00  4.500000e+00
     vertex -1.195146e+01  2.162420e+00  4.500000e+00
   endloop
 endfacet
 facet normal -1.835663e-01  9.830073e-01  0.000000e+00
   outer loop
     vertex -1.127748e+01  2.288278e+00  6.500000e+00
     vertex -1.195146e+01  2.162420e+00  4.500000e+00
     vertex -1.195146e+01  2.162420e+00  6.500000e+00
   endloop
 endfacet
 facet normal -2.351373e-01  9.719622e-01  0.000000e+00
   outer loop
     vertex -1.061108e+01  2.449494e+00  6.500000e+00
     vertex -1.061108e+01  2.449494e+00  4.500000e+00
     vertex -1.127748e+01  2.288278e+00  4.500000e+00
   endloop
 endfacet
 facet normal -2.860543e-01  9.582134e-01  0.000000e+00
   outer loop
     vertex -1.061108e+01  2.449494e+00  6.500000e+00
     vertex -9.954099e+00  2.645621e+00  4.500000e+00
     vertex -1.061108e+01  2.449494e+00  4.500000e+00
   endloop
 endfacet
 facet normal -2.351373e-01  9.719622e-01  0.000000e+00
   outer loop
     vertex -1.061108e+01  2.449494e+00  6.500000e+00
     vertex -1.127748e+01  2.288278e+00  4.500000e+00
     vertex -1.127748e+01  2.288278e+00  6.500000e+00
   endloop
 endfacet
 facet normal -2.860543e-01  9.582134e-01  0.000000e+00
   outer loop
     vertex -9.954099e+00  2.645621e+00  6.500000e+00
     vertex -9.954099e+00  2.645621e+00  4.500000e+00
     vertex -1.061108e+01  2.449494e+00  6.500000e+00
   endloop
 endfacet
 facet normal -3.361755e-01  9.417994e-01  0.000000e+00
   outer loop
     vertex -9.308377e+00  2.876112e+00  6.500000e+00
     vertex -9.308377e+00  2.876112e+00  4.500000e+00
     vertex -9.954099e+00  2.645621e+00  4.500000e+00
   endloop
 endfacet
 facet normal -3.361755e-01  9.417994e-01  0.000000e+00
   outer loop
     vertex -9.308377e+00  2.876112e+00  6.500000e+00
     vertex -9.954099e+00  2.645621e+00  4.500000e+00
     vertex -9.954099e+00  2.645621e+00  6.500000e+00
   endloop
 endfacet
 facet normal -3.853617e-01  9.227656e-01  0.000000e+00
   outer loop
     vertex -8.675704e+00  3.140326e+00  6.500000e+00
     vertex -8.675704e+00  3.140326e+00  4.500000e+00
     vertex -9.308377e+00  2.876112e+00  4.500000e+00
   endloop
 endfacet
 facet normal -3.853617e-01  9.227656e-01  0.000000e+00
   outer loop
     vertex -8.675704e+00  3.140326e+00  6.500000e+00
     vertex -9.308377e+00  2.876112e+00  4.500000e+00
     vertex -9.308377e+00  2.876112e+00  6.500000e+00
   endloop
 endfacet
 facet normal -4.334759e-01  9.011651e-01  0.000000e+00
   outer loop
     vertex -8.057841e+00  3.437529e+00  6.500000e+00
     vertex -8.057841e+00  3.437529e+00  4.500000e+00
     vertex -8.675704e+00  3.140326e+00  4.500000e+00
   endloop
 endfacet
 facet normal -4.334759e-01  9.011651e-01  0.000000e+00
   outer loop
     vertex -8.057841e+00  3.437529e+00  6.500000e+00
     vertex -8.675704e+00  3.140326e+00  4.500000e+00
     vertex -8.675704e+00  3.140326e+00  6.500000e+00
   endloop
 endfacet
 facet normal -4.803845e-01  8.770580e-01  0.000000e+00
   outer loop
     vertex -7.456507e+00  3.766893e+00  6.500000e+00
     vertex -7.456507e+00  3.766893e+00  4.500000e+00
     vertex -8.057841e+00  3.437529e+00  4.500000e+00
   endloop
 endfacet
 facet normal -4.803845e-01  8.770580e-01  0.000000e+00
   outer loop
     vertex -7.456507e+00  3.766893e+00  6.500000e+00
     vertex -8.057841e+00  3.437529e+00  4.500000e+00
     vertex -8.057841e+00  3.437529e+00  6.500000e+00
   endloop
 endfacet
 facet normal -5.259568e-01  8.505113e-01  0.000000e+00
   outer loop
     vertex -6.873373e+00  4.127503e+00  6.500000e+00
     vertex -6.873373e+00  4.127503e+00  4.500000e+00
     vertex -7.456507e+00  3.766893e+00  4.500000e+00
   endloop
 endfacet
 facet normal -5.259568e-01  8.505113e-01  0.000000e+00
   outer loop
     vertex -6.873373e+00  4.127503e+00  6.500000e+00
     vertex -7.456507e+00  3.766893e+00  4.500000e+00
     vertex -7.456507e+00  3.766893e+00  6.500000e+00
   endloop
 endfacet
 facet normal -5.700661e-01  8.215988e-01  0.000000e+00
   outer loop
     vertex -6.310063e+00  4.518356e+00  6.500000e+00
     vertex -6.310063e+00  4.518356e+00  4.500000e+00
     vertex -6.873373e+00  4.127503e+00  4.500000e+00
   endloop
 endfacet
 facet normal -5.700661e-01  8.215988e-01  0.000000e+00
   outer loop
     vertex -6.310063e+00  4.518356e+00  6.500000e+00
     vertex -6.873373e+00  4.127503e+00  4.500000e+00
     vertex -6.873373e+00  4.127503e+00  6.500000e+00
   endloop
 endfacet
 facet normal -6.125897e-01  7.904011e-01  0.000000e+00
   outer loop
     vertex -5.768143e+00  4.938363e+00  6.500000e+00
     vertex -5.768143e+00  4.938363e+00  4.500000e+00
     vertex -6.310063e+00  4.518356e+00  4.500000e+00
   endloop
 endfacet
 facet normal -6.125897e-01  7.904011e-01  0.000000e+00
   outer loop
     vertex -5.768143e+00  4.938363e+00  6.500000e+00
     vertex -6.310063e+00  4.518356e+00  4.500000e+00
     vertex -6.310063e+00  4.518356e+00  6.500000e+00
   endloop
 endfacet
 facet normal -6.534094e-01  7.570047e-01  0.000000e+00
   outer loop
     vertex -5.249120e+00  5.386358e+00  6.500000e+00
     vertex -5.249120e+00  5.386358e+00  4.500000e+00
     vertex -5.768143e+00  4.938363e+00  4.500000e+00
   endloop
 endfacet
 facet normal -6.534094e-01  7.570047e-01  0.000000e+00
   outer loop
     vertex -5.249120e+00  5.386358e+00  6.500000e+00
     vertex -5.768143e+00  4.938363e+00  4.500000e+00
     vertex -5.768143e+00  4.938363e+00  6.500000e+00
   endloop
 endfacet
 facet normal -6.924116e-01  7.215027e-01  0.000000e+00
   outer loop
     vertex -4.754439e+00  5.861094e+00  6.500000e+00
     vertex -5.249120e+00  5.386358e+00  4.500000e+00
     vertex -5.249120e+00  5.386358e+00  6.500000e+00
   endloop
 endfacet
 facet normal -6.924116e-01  7.215027e-01  0.000000e+00
   outer loop
     vertex -4.754439e+00  5.861094e+00  6.500000e+00
     vertex -4.754439e+00  5.861094e+00  4.500000e+00
     vertex -5.249120e+00  5.386358e+00  4.500000e+00
   endloop
 endfacet
 facet normal -7.294878e-01  6.839938e-01  0.000000e+00
   outer loop
     vertex -4.285474e+00  6.361251e+00  6.500000e+00
     vertex -4.754439e+00  5.861094e+00  4.500000e+00
     vertex -4.754439e+00  5.861094e+00  6.500000e+00
   endloop
 endfacet
 facet normal -7.294878e-01  6.839938e-01  0.000000e+00
   outer loop
     vertex -4.285474e+00  6.361251e+00  6.500000e+00
     vertex -4.285474e+00  6.361251e+00  4.500000e+00
     vertex -4.754439e+00  5.861094e+00  4.500000e+00
   endloop
 endfacet
 facet normal -7.645349e-01  6.445824e-01  0.000000e+00
   outer loop
     vertex -3.843531e+00  6.885436e+00  6.500000e+00
     vertex -4.285474e+00  6.361251e+00  4.500000e+00
     vertex -4.285474e+00  6.361251e+00  6.500000e+00
   endloop
 endfacet
 facet normal -7.645349e-01  6.445824e-01  0.000000e+00
   outer loop
     vertex -3.843531e+00  6.885436e+00  6.500000e+00
     vertex -3.843531e+00  6.885436e+00  4.500000e+00
     vertex -4.285474e+00  6.361251e+00  4.500000e+00
   endloop
 endfacet
 facet normal -7.974554e-01  6.033779e-01  0.000000e+00
   outer loop
     vertex -3.429839e+00  7.432193e+00  6.500000e+00
     vertex -3.843531e+00  6.885436e+00  4.500000e+00
     vertex -3.843531e+00  6.885436e+00  6.500000e+00
   endloop
 endfacet
 facet normal -7.974554e-01  6.033779e-01  0.000000e+00
   outer loop
     vertex -3.429839e+00  7.432193e+00  6.500000e+00
     vertex -3.429839e+00  7.432193e+00  4.500000e+00
     vertex -3.843531e+00  6.885436e+00  4.500000e+00
   endloop
 endfacet
 facet normal -8.281577e-01  5.604952e-01  0.000000e+00
   outer loop
     vertex -3.045549e+00  8.000000e+00  6.500000e+00
     vertex -3.429839e+00  7.432193e+00  4.500000e+00
     vertex -3.429839e+00  7.432193e+00  6.500000e+00
   endloop
 endfacet
 facet normal -8.281577e-01  5.604952e-01  0.000000e+00
   outer loop
     vertex -3.045549e+00  8.000000e+00  6.500000e+00
     vertex -3.045549e+00  8.000000e+00  4.500000e+00
     vertex -3.429839e+00  7.432193e+00  4.500000e+00
   endloop
 endfacet
 facet normal  1.000000e+00  3.079019e-14  0.000000e+00
   outer loop
     vertex -1.400000e+01  2.000000e+00  4.500000e+00
     vertex -1.400000e+01  8.000000e+00  4.500000e+00
     vertex -1.400000e+01  8.000000e+00  6.500000e+00
   endloop
 endfacet
 facet normal  1.000000e+00  3.079019e-14 -0.000000e+00
   outer loop
     vertex -1.400000e+01  2.000000e+00  4.500000e+00
     vertex -1.400000e+01  8.000000e+00  6.500000e+00
     vertex -1.400000e+01  2.000000e+00  6.500000e+00
   endloop
 endfacet
 facet normal  3.126244e-14  1.000000e+00  0.000000e+00
   outer loop
     vertex -1.400000e+01  8.000000e+00  4.500000e+00
     vertex -1.604555e+01  8.000000e+00  4.500000e+00
     vertex -1.604555e+01  8.000000e+00  6.500000e+00
   endloop
 endfacet
 facet normal  3.126244e-14  1.000000e+00 -0.000000e+00
   outer loop
     vertex -1.400000e+01  8.000000e+00  4.500000e+00
     vertex -1.604555e+01  8.000000e+00  6.500000e+00
     vertex -1.400000e+01  8.000000e+00  6.500000e+00
   endloop
 endfacet
 facet normal -2.637026e-02  9.996522e-01  0.000000e+00
   outer loop
     vertex -2.631461e+01  2.018080e+00  6.500000e+00
     vertex -2.700000e+01  2.000000e+00  4.500000e+00
     vertex -2.700000e+01  2.000000e+00  6.500000e+00
   endloop
 endfacet
 facet normal -2.637026e-02  9.996522e-01  0.000000e+00
   outer loop
     vertex -2.631461e+01  2.018080e+00  6.500000e+00
     vertex -2.631461e+01  2.018080e+00  4.500000e+00
     vertex -2.700000e+01  2.000000e+00  4.500000e+00
   endloop
 endfacet
 facet normal -7.903743e-02  9.968716e-01  0.000000e+00
   outer loop
     vertex -2.563113e+01  2.072270e+00  6.500000e+00
     vertex -2.563113e+01  2.072270e+00  4.500000e+00
     vertex -2.631461e+01  2.018080e+00  4.500000e+00
   endloop
 endfacet
 facet normal -7.903743e-02  9.968716e-01  0.000000e+00
   outer loop
     vertex -2.563113e+01  2.072270e+00  6.500000e+00
     vertex -2.631461e+01  2.018080e+00  4.500000e+00
     vertex -2.631461e+01  2.018080e+00  6.500000e+00
   endloop
 endfacet
 facet normal -1.314847e-01  9.913182e-01  0.000000e+00
   outer loop
     vertex -2.495146e+01  2.162420e+00  6.500000e+00
     vertex -2.495146e+01  2.162420e+00  4.500000e+00
     vertex -2.563113e+01  2.072270e+00  4.500000e+00
   endloop
 endfacet
 facet normal -1.314847e-01  9.913182e-01  0.000000e+00
   outer loop
     vertex -2.495146e+01  2.162420e+00  6.500000e+00
     vertex -2.563113e+01  2.072270e+00  4.500000e+00
     vertex -2.563113e+01  2.072270e+00  6.500000e+00
   endloop
 endfacet
 facet normal -1.835663e-01  9.830073e-01  0.000000e+00
   outer loop
     vertex -2.427748e+01  2.288278e+00  6.500000e+00
     vertex -2.427748e+01  2.288278e+00  4.500000e+00
     vertex -2.495146e+01  2.162420e+00  4.500000e+00
   endloop
 endfacet
 facet normal -1.835663e-01  9.830073e-01  0.000000e+00
   outer loop
     vertex -2.427748e+01  2.288278e+00  6.500000e+00
     vertex -2.495146e+01  2.162420e+00  4.500000e+00
     vertex -2.495146e+01  2.162420e+00  6.500000e+00
   endloop
 endfacet
 facet normal -2.351373e-01  9.719622e-01  0.000000e+00
   outer loop
     vertex -2.361108e+01  2.449494e+00  6.500000e+00
     vertex -2.361108e+01  2.449494e+00  4.500000e+00
     vertex -2.427748e+01  2.288278e+00  4.500000e+00
   endloop
 endfacet
 facet normal -2.860543e-01  9.582134e-01  0.000000e+00
   outer loop
     vertex -2.361108e+01  2.449494e+00  6.500000e+00
     vertex -2.295410e+01  2.645621e+00  4.500000e+00
     vertex -2.361108e+01  2.449494e+00  4.500000e+00
   endloop
 endfacet
 facet normal -2.351373e-01  9.719622e-01  0.000000e+00
   outer loop
     vertex -2.361108e+01  2.449494e+00  6.500000e+00
     vertex -2.427748e+01  2.288278e+00  4.500000e+00
     vertex -2.427748e+01  2.288278e+00  6.500000e+00
   endloop
 endfacet
 facet normal -2.860543e-01  9.582134e-01  0.000000e+00
   outer loop
     vertex -2.295410e+01  2.645621e+00  6.500000e+00
     vertex -2.295410e+01  2.645621e+00  4.500000e+00
     vertex -2.361108e+01  2.449494e+00  6.500000e+00
   endloop
 endfacet
 facet normal -3.361755e-01  9.417994e-01  0.000000e+00
   outer loop
     vertex -2.230838e+01  2.876112e+00  6.500000e+00
     vertex -2.230838e+01  2.876112e+00  4.500000e+00
     vertex -2.295410e+01  2.645621e+00  4.500000e+00
   endloop
 endfacet
 facet normal -3.361755e-01  9.417994e-01  0.000000e+00
   outer loop
     vertex -2.230838e+01  2.876112e+00  6.500000e+00
     vertex -2.295410e+01  2.645621e+00  4.500000e+00
     vertex -2.295410e+01  2.645621e+00  6.500000e+00
   endloop
 endfacet
 facet normal -3.853617e-01  9.227656e-01  0.000000e+00
   outer loop
     vertex -2.167570e+01  3.140326e+00  6.500000e+00
     vertex -2.167570e+01  3.140326e+00  4.500000e+00
     vertex -2.230838e+01  2.876112e+00  4.500000e+00
   endloop
 endfacet
 facet normal -3.853617e-01  9.227656e-01  0.000000e+00
   outer loop
     vertex -2.167570e+01  3.140326e+00  6.500000e+00
     vertex -2.230838e+01  2.876112e+00  4.500000e+00
     vertex -2.230838e+01  2.876112e+00  6.500000e+00
   endloop
 endfacet
 facet normal -4.334759e-01  9.011651e-01  0.000000e+00
   outer loop
     vertex -2.105784e+01  3.437529e+00  6.500000e+00
     vertex -2.105784e+01  3.437529e+00  4.500000e+00
     vertex -2.167570e+01  3.140326e+00  4.500000e+00
   endloop
 endfacet
 facet normal -4.334759e-01  9.011651e-01  0.000000e+00
   outer loop
     vertex -2.105784e+01  3.437529e+00  6.500000e+00
     vertex -2.167570e+01  3.140326e+00  4.500000e+00
     vertex -2.167570e+01  3.140326e+00  6.500000e+00
   endloop
 endfacet
 facet normal -4.803845e-01  8.770580e-01  0.000000e+00
   outer loop
     vertex -2.045651e+01  3.766893e+00  6.500000e+00
     vertex -2.045651e+01  3.766893e+00  4.500000e+00
     vertex -2.105784e+01  3.437529e+00  4.500000e+00
   endloop
 endfacet
 facet normal -4.803845e-01  8.770580e-01  0.000000e+00
   outer loop
     vertex -2.045651e+01  3.766893e+00  6.500000e+00
     vertex -2.105784e+01  3.437529e+00  4.500000e+00
     vertex -2.105784e+01  3.437529e+00  6.500000e+00
   endloop
 endfacet
 facet normal -5.259568e-01  8.505113e-01  0.000000e+00
   outer loop
     vertex -1.987337e+01  4.127503e+00  6.500000e+00
     vertex -1.987337e+01  4.127503e+00  4.500000e+00
     vertex -2.045651e+01  3.766893e+00  4.500000e+00
   endloop
 endfacet
 facet normal -5.259568e-01  8.505113e-01  0.000000e+00
   outer loop
     vertex -1.987337e+01  4.127503e+00  6.500000e+00
     vertex -2.045651e+01  3.766893e+00  4.500000e+00
     vertex -2.045651e+01  3.766893e+00  6.500000e+00
   endloop
 endfacet
 facet normal -5.700661e-01  8.215988e-01  0.000000e+00
   outer loop
     vertex -1.931006e+01  4.518356e+00  6.500000e+00
     vertex -1.931006e+01  4.518356e+00  4.500000e+00
     vertex -1.987337e+01  4.127503e+00  4.500000e+00
   endloop
 endfacet
 facet normal -5.700661e-01  8.215988e-01  0.000000e+00
   outer loop
     vertex -1.931006e+01  4.518356e+00  6.500000e+00
     vertex -1.987337e+01  4.127503e+00  4.500000e+00
     vertex -1.987337e+01  4.127503e+00  6.500000e+00
   endloop
 endfacet
 facet normal -6.125897e-01  7.904011e-01  0.000000e+00
   outer loop
     vertex -1.876814e+01  4.938363e+00  6.500000e+00
     vertex -1.876814e+01  4.938363e+00  4.500000e+00
     vertex -1.931006e+01  4.518356e+00  4.500000e+00
   endloop
 endfacet
 facet normal -6.125897e-01  7.904011e-01  0.000000e+00
   outer loop
     vertex -1.876814e+01  4.938363e+00  6.500000e+00
     vertex -1.931006e+01  4.518356e+00  4.500000e+00
     vertex -1.931006e+01  4.518356e+00  6.500000e+00
   endloop
 endfacet
 facet normal -6.534094e-01  7.570047e-01  0.000000e+00
   outer loop
     vertex -1.824912e+01  5.386358e+00  6.500000e+00
     vertex -1.824912e+01  5.386358e+00  4.500000e+00
     vertex -1.876814e+01  4.938363e+00  4.500000e+00
   endloop
 endfacet
 facet normal -6.534094e-01  7.570047e-01  0.000000e+00
   outer loop
     vertex -1.824912e+01  5.386358e+00  6.500000e+00
     vertex -1.876814e+01  4.938363e+00  4.500000e+00
     vertex -1.876814e+01  4.938363e+00  6.500000e+00
   endloop
 endfacet
 facet normal -6.924116e-01  7.215027e-01  0.000000e+00
   outer loop
     vertex -1.775444e+01  5.861094e+00  6.500000e+00
     vertex -1.824912e+01  5.386358e+00  4.500000e+00
     vertex -1.824912e+01  5.386358e+00  6.500000e+00
   endloop
 endfacet
 facet normal -6.924116e-01  7.215027e-01  0.000000e+00
   outer loop
     vertex -1.775444e+01  5.861094e+00  6.500000e+00
     vertex -1.775444e+01  5.861094e+00  4.500000e+00
     vertex -1.824912e+01  5.386358e+00  4.500000e+00
   endloop
 endfacet
 facet normal -7.294878e-01  6.839938e-01  0.000000e+00
   outer loop
     vertex -1.728547e+01  6.361251e+00  6.500000e+00
     vertex -1.775444e+01  5.861094e+00  4.500000e+00
     vertex -1.775444e+01  5.861094e+00  6.500000e+00
   endloop
 endfacet
 facet normal -7.294878e-01  6.839938e-01  0.000000e+00
   outer loop
     vertex -1.728547e+01  6.361251e+00  6.500000e+00
     vertex -1.728547e+01  6.361251e+00  4.500000e+00
     vertex -1.775444e+01  5.861094e+00  4.500000e+00
   endloop
 endfacet
 facet normal -7.645349e-01  6.445824e-01  0.000000e+00
   outer loop
     vertex -1.684353e+01  6.885436e+00  6.500000e+00
     vertex -1.728547e+01  6.361251e+00  4.500000e+00
     vertex -1.728547e+01  6.361251e+00  6.500000e+00
   endloop
 endfacet
 facet normal -7.645349e-01  6.445824e-01  0.000000e+00
   outer loop
     vertex -1.684353e+01  6.885436e+00  6.500000e+00
     vertex -1.684353e+01  6.885436e+00  4.500000e+00
     vertex -1.728547e+01  6.361251e+00  4.500000e+00
   endloop
 endfacet
 facet normal -7.974554e-01  6.033779e-01  0.000000e+00
   outer loop
     vertex -1.642984e+01  7.432193e+00  6.500000e+00
     vertex -1.684353e+01  6.885436e+00  4.500000e+00
     vertex -1.684353e+01  6.885436e+00  6.500000e+00
   endloop
 endfacet
 facet normal -7.974554e-01  6.033779e-01  0.000000e+00
   outer loop
     vertex -1.642984e+01  7.432193e+00  6.500000e+00
     vertex -1.642984e+01  7.432193e+00  4.500000e+00
     vertex -1.684353e+01  6.885436e+00  4.500000e+00
   endloop
 endfacet
 facet normal -8.281577e-01  5.604952e-01  0.000000e+00
   outer loop
     vertex -1.604555e+01  8.000000e+00  6.500000e+00
     vertex -1.642984e+01  7.432193e+00  4.500000e+00
     vertex -1.642984e+01  7.432193e+00  6.500000e+00
   endloop
 endfacet
 facet normal -8.281577e-01  5.604952e-01  0.000000e+00
   outer loop
     vertex -1.604555e+01  8.000000e+00  6.500000e+00
     vertex -1.604555e+01  8.000000e+00  4.500000e+00
     vertex -1.642984e+01  7.432193e+00  4.500000e+00
   endloop
 endfacet
 facet normal  1.000000e+00  3.197442e-14  0.000000e+00
   outer loop
     vertex -2.700000e+01  2.000000e+00  4.500000e+00
     vertex -2.700000e+01  8.000000e+00  4.500000e+00
     vertex -2.700000e+01  8.000000e+00  6.500000e+00
   endloop
 endfacet
 facet normal  1.000000e+00  3.197442e-14 -0.000000e+00
   outer loop
     vertex -2.700000e+01  2.000000e+00  4.500000e+00
     vertex -2.700000e+01  8.000000e+00  6.500000e+00
     vertex -2.700000e+01  2.000000e+00  6.500000e+00
   endloop
 endfacet
 facet normal  3.126244e-14  1.000000e+00  0.000000e+00
   outer loop
     vertex -2.700000e+01  8.000000e+00  4.500000e+00
     vertex -2.904555e+01  8.000000e+00  4.500000e+00
     vertex -2.904555e+01  8.000000e+00  6.500000e+00
   endloop
 endfacet
 facet normal  3.126244e-14  1.000000e+00 -0.000000e+00
   outer loop
     vertex -2.700000e+01  8.000000e+00  4.500000e+00
     vertex -2.904555e+01  8.000000e+00  6.500000e+00
     vertex -2.700000e+01  8.000000e+00  6.500000e+00
   endloop
 endfacet
 facet normal -1.000000e+00  8.160594e-14  0.000000e+00
   outer loop
     vertex -4.300000e+01  2.350889e+00  4.500000e+00
     vertex -4.300000e+01  0.000000e+00  4.500000e+00
     vertex -4.300000e+01  0.000000e+00  6.500000e+00
   endloop
 endfacet
 facet normal -1.000000e+00  8.160594e-14  0.000000e+00
   outer loop
     vertex -4.300000e+01  2.350889e+00  4.500000e+00
     vertex -4.300000e+01  0.000000e+00  6.500000e+00
     vertex -4.300000e+01  2.350889e+00  6.500000e+00
   endloop
 endfacet
 facet normal  2.045649e-01  9.788530e-01  0.000000e+00
   outer loop
     vertex -4.231677e+01  2.208105e+00  6.500000e+00
     vertex -4.300000e+01  2.350889e+00  4.500000e+00
     vertex -4.300000e+01  2.350889e+00  6.500000e+00
   endloop
 endfacet
 facet normal  2.045649e-01  9.788530e-01  0.000000e+00
   outer loop
     vertex -4.231677e+01  2.208105e+00  6.500000e+00
     vertex -4.231677e+01  2.208105e+00  4.500000e+00
     vertex -4.300000e+01  2.350889e+00  4.500000e+00
   endloop
 endfacet
 facet normal  1.517328e-01  9.884215e-01  0.000000e+00
   outer loop
     vertex -4.162686e+01  2.102197e+00  6.500000e+00
     vertex -4.162686e+01  2.102197e+00  4.500000e+00
     vertex -4.231677e+01  2.208105e+00  4.500000e+00
   endloop
 endfacet
 facet normal  1.517328e-01  9.884215e-01  0.000000e+00
   outer loop
     vertex -4.162686e+01  2.102197e+00  6.500000e+00
     vertex -4.231677e+01  2.208105e+00  4.500000e+00
     vertex -4.231677e+01  2.208105e+00  6.500000e+00
   endloop
 endfacet
 facet normal  9.846336e-02  9.951407e-01  0.000000e+00
   outer loop
     vertex -4.093226e+01  2.033471e+00  6.500000e+00
     vertex -4.093226e+01  2.033471e+00  4.500000e+00
     vertex -4.162686e+01  2.102197e+00  4.500000e+00
   endloop
 endfacet
 facet normal  9.846336e-02  9.951407e-01  0.000000e+00
   outer loop
     vertex -4.093226e+01  2.033471e+00  6.500000e+00
     vertex -4.162686e+01  2.102197e+00  4.500000e+00
     vertex -4.162686e+01  2.102197e+00  6.500000e+00
   endloop
 endfacet
 facet normal  4.491004e-02  9.989910e-01  0.000000e+00
   outer loop
     vertex -4.023498e+01  2.002124e+00  6.500000e+00
     vertex -4.023498e+01  2.002124e+00  4.500000e+00
     vertex -4.093226e+01  2.033471e+00  4.500000e+00
   endloop
 endfacet
 facet normal  4.491004e-02  9.989910e-01  0.000000e+00
   outer loop
     vertex -4.023498e+01  2.002124e+00  6.500000e+00
     vertex -4.093226e+01  2.033471e+00  4.500000e+00
     vertex -4.093226e+01  2.033471e+00  6.500000e+00
   endloop
 endfacet
 facet normal -8.772749e-03  9.999615e-01  0.000000e+00
   outer loop
     vertex -3.953701e+01  2.008247e+00  6.500000e+00
     vertex -3.953701e+01  2.008247e+00  4.500000e+00
     vertex -4.023498e+01  2.002124e+00  4.500000e+00
   endloop
 endfacet
 facet normal -8.772749e-03  9.999615e-01  0.000000e+00
   outer loop
     vertex -3.953701e+01  2.008247e+00  6.500000e+00
     vertex -4.023498e+01  2.002124e+00  4.500000e+00
     vertex -4.023498e+01  2.002124e+00  6.500000e+00
   endloop
 endfacet
 facet normal -6.243025e-02  9.980493e-01  0.000000e+00
   outer loop
     vertex -3.884038e+01  2.051823e+00  6.500000e+00
     vertex -3.884038e+01  2.051823e+00  4.500000e+00
     vertex -3.953701e+01  2.008247e+00  4.500000e+00
   endloop
 endfacet
 facet normal -6.243025e-02  9.980493e-01  0.000000e+00
   outer loop
     vertex -3.884038e+01  2.051823e+00  6.500000e+00
     vertex -3.953701e+01  2.008247e+00  4.500000e+00
     vertex -3.953701e+01  2.008247e+00  6.500000e+00
   endloop
 endfacet
 facet normal -1.159078e-01  9.932600e-01  0.000000e+00
   outer loop
     vertex -3.814710e+01  2.132725e+00  6.500000e+00
     vertex -3.814710e+01  2.132725e+00  4.500000e+00
     vertex -3.884038e+01  2.051823e+00  4.500000e+00
   endloop
 endfacet
 facet normal -1.159078e-01  9.932600e-01  0.000000e+00
   outer loop
     vertex -3.814710e+01  2.132725e+00  6.500000e+00
     vertex -3.884038e+01  2.051823e+00  4.500000e+00
     vertex -3.884038e+01  2.051823e+00  6.500000e+00
   endloop
 endfacet
 facet normal -1.690512e-01  9.856073e-01  0.000000e+00
   outer loop
     vertex -3.745915e+01  2.250721e+00  6.500000e+00
     vertex -3.745915e+01  2.250721e+00  4.500000e+00
     vertex -3.814710e+01  2.132725e+00  4.500000e+00
   endloop
 endfacet
 facet normal -2.217072e-01  9.751133e-01  0.000000e+00
   outer loop
     vertex -3.745915e+01  2.250721e+00  6.500000e+00
     vertex -3.677854e+01  2.405471e+00  4.500000e+00
     vertex -3.745915e+01  2.250721e+00  4.500000e+00
   endloop
 endfacet
 facet normal -1.690512e-01  9.856073e-01  0.000000e+00
   outer loop
     vertex -3.745915e+01  2.250721e+00  6.500000e+00
     vertex -3.814710e+01  2.132725e+00  4.500000e+00
     vertex -3.814710e+01  2.132725e+00  6.500000e+00
   endloop
 endfacet
 facet normal -2.217072e-01  9.751133e-01  0.000000e+00
   outer loop
     vertex -3.677854e+01  2.405471e+00  6.500000e+00
     vertex -3.677854e+01  2.405471e+00  4.500000e+00
     vertex -3.745915e+01  2.250721e+00  6.500000e+00
   endloop
 endfacet
 facet normal -2.737241e-01  9.618082e-01  0.000000e+00
   outer loop
     vertex -3.610720e+01  2.596528e+00  6.500000e+00
     vertex -3.610720e+01  2.596528e+00  4.500000e+00
     vertex -3.677854e+01  2.405471e+00  4.500000e+00
   endloop
 endfacet
 facet normal -2.737241e-01  9.618082e-01  0.000000e+00
   outer loop
     vertex -3.610720e+01  2.596528e+00  6.500000e+00
     vertex -3.677854e+01  2.405471e+00  4.500000e+00
     vertex -3.677854e+01  2.405471e+00  6.500000e+00
   endloop
 endfacet
 facet normal -3.249519e-01  9.457305e-01  0.000000e+00
   outer loop
     vertex -3.544709e+01  2.823341e+00  6.500000e+00
     vertex -3.544709e+01  2.823341e+00  4.500000e+00
     vertex -3.610720e+01  2.596528e+00  4.500000e+00
   endloop
 endfacet
 facet normal -3.752430e-01  9.269265e-01  0.000000e+00
   outer loop
     vertex -3.544709e+01  2.823341e+00  6.500000e+00
     vertex -3.480011e+01  3.085257e+00  4.500000e+00
     vertex -3.544709e+01  2.823341e+00  4.500000e+00
   endloop
 endfacet
 facet normal -3.249519e-01  9.457305e-01  0.000000e+00
   outer loop
     vertex -3.544709e+01  2.823341e+00  6.500000e+00
     vertex -3.610720e+01  2.596528e+00  4.500000e+00
     vertex -3.610720e+01  2.596528e+00  6.500000e+00
   endloop
 endfacet
 facet normal -3.752430e-01  9.269265e-01  0.000000e+00
   outer loop
     vertex -3.480011e+01  3.085257e+00  6.500000e+00
     vertex -3.480011e+01  3.085257e+00  4.500000e+00
     vertex -3.544709e+01  2.823341e+00  6.500000e+00
   endloop
 endfacet
 facet normal -4.244523e-01  9.054503e-01  0.000000e+00
   outer loop
     vertex -3.416811e+01  3.381520e+00  6.500000e+00
     vertex -3.480011e+01  3.085257e+00  4.500000e+00
     vertex -3.480011e+01  3.085257e+00  6.500000e+00
   endloop
 endfacet
 facet normal -4.244523e-01  9.054503e-01  0.000000e+00
   outer loop
     vertex -3.416811e+01  3.381520e+00  6.500000e+00
     vertex -3.416811e+01  3.381520e+00  4.500000e+00
     vertex -3.480011e+01  3.085257e+00  4.500000e+00
   endloop
 endfacet
 facet normal -4.724380e-01  8.813639e-01  0.000000e+00
   outer loop
     vertex -3.355293e+01  3.711278e+00  6.500000e+00
     vertex -3.416811e+01  3.381520e+00  4.500000e+00
     vertex -3.416811e+01  3.381520e+00  6.500000e+00
   endloop
 endfacet
 facet normal -4.724380e-01  8.813639e-01  0.000000e+00
   outer loop
     vertex -3.355293e+01  3.711278e+00  6.500000e+00
     vertex -3.355293e+01  3.711278e+00  4.500000e+00
     vertex -3.416811e+01  3.381520e+00  4.500000e+00
   endloop
 endfacet
 facet normal -5.190618e-01  8.547367e-01  0.000000e+00
   outer loop
     vertex -3.295633e+01  4.073578e+00  6.500000e+00
     vertex -3.355293e+01  3.711278e+00  4.500000e+00
     vertex -3.355293e+01  3.711278e+00  6.500000e+00
   endloop
 endfacet
 facet normal -5.190618e-01  8.547367e-01  0.000000e+00
   outer loop
     vertex -3.295633e+01  4.073578e+00  6.500000e+00
     vertex -3.295633e+01  4.073578e+00  4.500000e+00
     vertex -3.355293e+01  3.711278e+00  4.500000e+00
   endloop
 endfacet
 facet normal -5.641892e-01  8.256455e-01  0.000000e+00
   outer loop
     vertex -3.238004e+01  4.467376e+00  6.500000e+00
     vertex -3.295633e+01  4.073578e+00  4.500000e+00
     vertex -3.295633e+01  4.073578e+00  6.500000e+00
   endloop
 endfacet
 facet normal -5.641892e-01  8.256455e-01  0.000000e+00
   outer loop
     vertex -3.238004e+01  4.467376e+00  6.500000e+00
     vertex -3.238004e+01  4.467376e+00  4.500000e+00
     vertex -3.295633e+01  4.073578e+00  4.500000e+00
   endloop
 endfacet
 facet normal -6.076902e-01  7.941741e-01  0.000000e+00
   outer loop
     vertex -3.182571e+01  4.891538e+00  6.500000e+00
     vertex -3.238004e+01  4.467376e+00  4.500000e+00
     vertex -3.238004e+01  4.467376e+00  6.500000e+00
   endloop
 endfacet
 facet normal -6.076902e-01  7.941741e-01  0.000000e+00
   outer loop
     vertex -3.182571e+01  4.891538e+00  6.500000e+00
     vertex -3.182571e+01  4.891538e+00  4.500000e+00
     vertex -3.238004e+01  4.467376e+00  4.500000e+00
   endloop
 endfacet
 facet normal -6.494394e-01  7.604133e-01  0.000000e+00
   outer loop
     vertex -3.129495e+01  5.344840e+00  6.500000e+00
     vertex -3.182571e+01  4.891538e+00  4.500000e+00
     vertex -3.182571e+01  4.891538e+00  6.500000e+00
   endloop
 endfacet
 facet normal -6.494394e-01  7.604133e-01  0.000000e+00
   outer loop
     vertex -3.129495e+01  5.344840e+00  6.500000e+00
     vertex -3.129495e+01  5.344840e+00  4.500000e+00
     vertex -3.182571e+01  4.891538e+00  4.500000e+00
   endloop
 endfacet
 facet normal -6.893164e-01  7.244605e-01  0.000000e+00
   outer loop
     vertex -3.078928e+01  5.825977e+00  6.500000e+00
     vertex -3.129495e+01  5.344840e+00  4.500000e+00
     vertex -3.129495e+01  5.344840e+00  6.500000e+00
   endloop
 endfacet
 facet normal -6.893164e-01  7.244605e-01  0.000000e+00
   outer loop
     vertex -3.078928e+01  5.825977e+00  6.500000e+00
     vertex -3.078928e+01  5.825977e+00  4.500000e+00
     vertex -3.129495e+01  5.344840e+00  4.500000e+00
   endloop
 endfacet
 facet normal -7.272062e-01  6.864191e-01  0.000000e+00
   outer loop
     vertex -3.031017e+01  6.333559e+00  6.500000e+00
     vertex -3.078928e+01  5.825977e+00  4.500000e+00
     vertex -3.078928e+01  5.825977e+00  6.500000e+00
   endloop
 endfacet
 facet normal -7.272062e-01  6.864191e-01  0.000000e+00
   outer loop
     vertex -3.031017e+01  6.333559e+00  6.500000e+00
     vertex -3.031017e+01  6.333559e+00  4.500000e+00
     vertex -3.078928e+01  5.825977e+00  4.500000e+00
   endloop
 endfacet
 facet normal -7.629996e-01  6.463989e-01  0.000000e+00
   outer loop
     vertex -2.985899e+01  6.866126e+00  6.500000e+00
     vertex -3.031017e+01  6.333559e+00  4.500000e+00
     vertex -3.031017e+01  6.333559e+00  6.500000e+00
   endloop
 endfacet
 facet normal -7.629996e-01  6.463989e-01  0.000000e+00
   outer loop
     vertex -2.985899e+01  6.866126e+00  6.500000e+00
     vertex -2.985899e+01  6.866126e+00  4.500000e+00
     vertex -3.031017e+01  6.333559e+00  4.500000e+00
   endloop
 endfacet
 facet normal -7.965935e-01  6.045153e-01  0.000000e+00
   outer loop
     vertex -2.943704e+01  7.422140e+00  6.500000e+00
     vertex -2.985899e+01  6.866126e+00  4.500000e+00
     vertex -2.985899e+01  6.866126e+00  6.500000e+00
   endloop
 endfacet
 facet normal -7.965935e-01  6.045153e-01  0.000000e+00
   outer loop
     vertex -2.943704e+01  7.422140e+00  6.500000e+00
     vertex -2.943704e+01  7.422140e+00  4.500000e+00
     vertex -2.985899e+01  6.866126e+00  4.500000e+00
   endloop
 endfacet
 facet normal -8.278910e-01  5.608891e-01  0.000000e+00
   outer loop
     vertex -2.943704e+01  7.422140e+00  6.500000e+00
     vertex -2.904555e+01  8.000000e+00  4.500000e+00
     vertex -2.943704e+01  7.422140e+00  4.500000e+00
   endloop
 endfacet
 facet normal -8.278910e-01  5.608891e-01  0.000000e+00
   outer loop
     vertex -2.904555e+01  8.000000e+00  6.500000e+00
     vertex -2.904555e+01  8.000000e+00  4.500000e+00
     vertex -2.943704e+01  7.422140e+00  6.500000e+00
   endloop
 endfacet
endsolid
