<svg width="100mm" height="100mm" viewBox="0 0 100 100" xmlns="http://www.w3.org/2000/svg">
<circle cx="50.0" cy="50.0" r="8" stroke="black" stroke-width="0.1" fill="none" />
<circle cx="50.0" cy="50.0" r="38" stroke="black" stroke-width="0.1" fill="none" />
<polygon points="72.60326589655097,19.453439296545742 72.98170344432137,17.26101243475498 74.58924970060986,18.450534090716246" fill="black" />
<path d="M 54.446261863233694 37.78399592978319 A 13 13 0 0 0 50.0 37.0 L 50.0 42.0 A 8 8 0 0 1 52.73616114660535 42.482459033712736 Z" stroke="none" stroke-width="0.1" fill="black"/>
<path d="M 56.03624925742874 38.48636916945002 A 13 13 0 0 0 54.446261863233694 37.78399592978319 L 52.73616114660535 42.482459033712736 A 8 8 0 0 1 53.714614927648455 42.914688719661555 Z" stroke="none" stroke-width="0.1" fill="black"/>
<path d="M 58.35788358720903 34.058049619238496 A 18 18 0 0 0 56.15636257986204 33.08553282585365 L 54.446261863233694 37.78399592978319 A 13 13 0 0 1 56.03624925742874 38.48636916945002 Z" stroke="none" stroke-width="0.1" fill="black"/>
<path d="M 60.40998205102376 35.31557717520491 A 18 18 0 0 0 58.35788358720903 34.058049619238496 L 56.03624925742874 38.48636916945002 A 13 13 0 0 1 57.51832037018382 39.394583515425765 Z" stroke="none" stroke-width="0.1" fill="black"/>
<path d="M 62.27597048112497 36.835633370854936 A 18 18 0 0 0 60.40998205102376 35.31557717520491 L 57.51832037018382 39.394583515425765 A 13 13 0 0 1 58.86597868081248 40.49240187895079 Z" stroke="none" stroke-width="0.1" fill="black"/>
<path d="M 65.68596228143747 33.178864862759085 A 23 23 0 0 0 63.30164373186369 31.236570834984043 L 60.40998205102376 35.31557717520491 A 18 18 0 0 1 62.27597048112497 36.835633370854936 Z" stroke="none" stroke-width="0.1" fill="black"/>
<path d="M 60.05513070554153 41.76019742381677 A 13 13 0 0 0 58.86597868081248 40.49240187895079 L 55.455986880499985 44.14917038704664 A 8 8 0 0 1 56.18777274187171 44.92935226081032 Z" stroke="none" stroke-width="0.1" fill="black"/>
<path d="M 63.922488669211354 38.59104258682322 A 18 18 0 0 0 62.27597048112497 36.835633370854936 L 58.86597868081248 40.49240187895079 A 13 13 0 0 1 60.05513070554153 41.76019742381677 Z" stroke="none" stroke-width="0.1" fill="black"/>
<path d="M 67.78984663288117 35.421887749829665 A 23 23 0 0 0 65.68596228143747 33.178864862759085 L 62.27597048112497 36.835633370854936 A 18 18 0 0 1 63.922488669211354 38.59104258682322 Z" stroke="none" stroke-width="0.1" fill="black"/>
<path d="M 61.064516741681 43.17530445565072 A 13 13 0 0 0 60.05513070554153 41.76019742381677 L 56.18777274187171 44.92935226081032 A 8 8 0 0 1 56.808933379496 45.800187357323516 Z" stroke="none" stroke-width="0.1" fill="black"/>
<path d="M 69.57568346605099 37.925538652305114 A 23 23 0 0 0 67.78984663288117 35.421887749829665 L 63.922488669211354 38.59104258682322 A 18 18 0 0 1 65.320100103866 40.55042155397791 Z" stroke="none" stroke-width="0.1" fill="black"/>
<path d="M 71.01154552577982 40.64505720925659 A 23 23 0 0 0 69.57568346605099 37.925538652305114 L 65.320100103866 40.55042155397791 A 18 18 0 0 1 66.44381823756682 42.6787404246356 Z" stroke="none" stroke-width="0.1" fill="black"/>
<path d="M 72.07176241849403 43.53182377006049 A 23 23 0 0 0 71.01154552577982 40.64505720925659 L 66.44381823756682 42.6787404246356 A 18 18 0 0 1 67.2735531970823 44.93794903743865 Z" stroke="none" stroke-width="0.1" fill="black"/>
<path d="M 76.86997163990577 42.12569850268234 A 28 28 0 0 0 75.57927281399282 38.61137399387759 L 71.01154552577982 40.64505720925659 A 23 23 0 0 1 72.07176241849403 43.53182377006049 Z" stroke="none" stroke-width="0.1" fill="black"/>
<path d="M 62.851562353462455 48.04108574075672 A 13 13 0 0 0 62.47534397567054 46.3440743048168 L 57.677134754258795 47.75019957219495 A 8 8 0 0 1 57.90865375597689 48.79451430200414 Z" stroke="none" stroke-width="0.1" fill="black"/>
<path d="M 72.73737954843357 46.53422861826189 A 23 23 0 0 0 72.07176241849403 43.53182377006049 L 67.2735531970823 44.93794903743865 A 18 18 0 0 1 67.79447095094801 47.28765717950931 Z" stroke="none" stroke-width="0.1" fill="black"/>
<path d="M 77.68028814591912 45.780800057014474 A 28 28 0 0 0 76.86997163990577 42.12569850268234 L 72.07176241849403 43.53182377006049 A 23 23 0 0 1 72.73737954843357 46.53422861826189 Z" stroke="none" stroke-width="0.1" fill="black"/>
<path d="M 62.998020037033086 49.77311871631532 A 13 13 0 0 0 62.851562353462455 48.04108574075672 L 57.90865375597689 48.79451430200414 A 8 8 0 0 1 57.99878156125113 49.86038074850173 Z" stroke="none" stroke-width="0.1" fill="black"/>
<path d="M 67.99725851281505 49.68585668412889 A 18 18 0 0 0 67.79447095094801 47.28765717950931 L 62.851562353462455 48.04108574075672 A 13 13 0 0 1 62.998020037033086 49.77311871631532 Z" stroke="none" stroke-width="0.1" fill="black"/>
<path d="M 72.996496988597 49.59859465194248 A 23 23 0 0 0 72.73737954843357 46.53422861826189 L 67.79447095094801 47.28765717950931 A 18 18 0 0 1 67.99725851281505 49.68585668412889 Z" stroke="none" stroke-width="0.1" fill="black"/>
<path d="M 77.99573546437895 49.51133261975606 A 28 28 0 0 0 77.68028814591912 45.780800057014474 L 72.73737954843357 46.53422861826189 A 23 23 0 0 1 72.996496988597 49.59859465194248 Z" stroke="none" stroke-width="0.1" fill="black"/>
<path d="M 67.87829043935497 52.08967245425414 A 18 18 0 0 0 67.99725851281505 49.68585668412889 L 62.998020037033086 49.77311871631532 A 13 13 0 0 1 62.91209865064526 51.509207883627994 Z" stroke="none" stroke-width="0.1" fill="black"/>
<path d="M 72.84448222806469 52.6701370248803 A 23 23 0 0 0 72.996496988597 49.59859465194248 L 67.99725851281505 49.68585668412889 A 18 18 0 0 1 67.87829043935497 52.08967245425414 Z" stroke="none" stroke-width="0.1" fill="black"/>
<path d="M 77.81067401677441 53.250601595506446 A 28 28 0 0 0 77.99573546437895 49.51133261975606 L 72.996496988597 49.59859465194248 A 23 23 0 0 1 72.84448222806469 52.6701370248803 Z" stroke="none" stroke-width="0.1" fill="black"/>
<path d="M 67.43969364606622 54.45612898504495 A 18 18 0 0 0 67.87829043935497 52.08967245425414 L 62.91209865064526 51.509207883627994 A 13 13 0 0 1 62.59533429993671 53.218315378088015 Z" stroke="none" stroke-width="0.1" fill="black"/>
<path d="M 77.12841233832522 56.93175619895881 A 28 28 0 0 0 77.81067401677441 53.250601595506446 L 72.84448222806469 52.6701370248803 A 23 23 0 0 1 72.28405299219571 55.693942592001875 Z" stroke="none" stroke-width="0.1" fill="black"/>
<path d="M 62.05339010936824 54.869885714406855 A 13 13 0 0 0 62.59533429993671 53.218315378088015 L 57.75097495380721 51.98050177113109 A 8 8 0 0 1 57.4174708365343 52.996852747327296 Z" stroke="none" stroke-width="0.1" fill="black"/>
<path d="M 66.68930938220217 56.742918681486415 A 18 18 0 0 0 67.43969364606622 54.45612898504495 L 62.59533429993671 53.218315378088015 A 13 13 0 0 1 62.05339010936824 54.869885714406855 Z" stroke="none" stroke-width="0.1" fill="black"/>
<path d="M 75.96114792787004 60.488984615645535 A 28 28 0 0 0 77.12841233832522 56.93175619895881 L 72.28405299219571 55.693942592001875 A 23 23 0 0 1 71.32522865503611 58.615951648565975 Z" stroke="none" stroke-width="0.1" fill="black"/>
<path d="M 61.29595497668079 56.434392058679705 A 13 13 0 0 0 62.05339010936824 54.869885714406855 L 57.4174708365343 52.996852747327296 A 8 8 0 0 1 56.95135690872664 53.95962588226443 Z" stroke="none" stroke-width="0.1" fill="black"/>
<path d="M 74.32974918054325 63.85869058792552 A 28 28 0 0 0 75.96114792787004 60.488984615645535 L 71.32522865503611 58.615951648565975 A 23 23 0 0 1 69.9851511125891 61.38392441151025 Z" stroke="none" stroke-width="0.1" fill="black"/>
<path d="M 72.26338230185574 66.98063039116677 A 28 28 0 0 0 74.32974918054325 63.85869058792552 L 69.9851511125891 61.38392441151025 A 23 23 0 0 1 68.2877783193815 63.94837496417271 Z" stroke="none" stroke-width="0.1" fill="black"/>
<path d="M 69.79898987322333 69.79898987322332 A 28 28 0 0 0 72.26338230185574 66.98063039116677 L 68.2877783193815 63.94837496417271 A 23 23 0 0 1 66.2634559672906 66.2634559672906 Z" stroke="none" stroke-width="0.1" fill="black"/>
<path d="M 73.33452377915607 73.33452377915606 A 33 33 0 0 0 76.23898628432998 70.01288581816084 L 72.26338230185574 66.98063039116677 A 28 28 0 0 1 69.79898987322333 69.79898987322332 Z" stroke="none" stroke-width="0.1" fill="black"/>
<path d="M 57.883864110184575 60.33657035443302 A 13 13 0 0 0 59.19238815542512 59.19238815542512 L 55.65685424949238 55.65685424949238 A 8 8 0 0 1 54.851608683190506 56.36096637195878 Z" stroke="none" stroke-width="0.1" fill="black"/>
<path d="M 66.98063039116677 72.26338230185574 A 28 28 0 0 0 69.79898987322333 69.79898987322332 L 66.2634559672906 66.2634559672906 A 23 23 0 0 1 63.9483749641727 68.2877783193815 Z" stroke="none" stroke-width="0.1" fill="black"/>
<path d="M 70.01288581816084 76.23898628432998 A 33 33 0 0 0 73.33452377915607 73.33452377915606 L 69.79898987322333 69.79898987322332 A 28 28 0 0 1 66.98063039116677 72.26338230185574 Z" stroke="none" stroke-width="0.1" fill="black"/>
<path d="M 56.434392058679705 61.29595497668079 A 13 13 0 0 0 57.883864110184575 60.33657035443302 L 54.851608683190506 56.36096637195878 A 8 8 0 0 1 53.95962588226443 56.95135690872664 Z" stroke="none" stroke-width="0.1" fill="black"/>
<path d="M 58.90915823509498 65.64055304463494 A 18 18 0 0 0 60.91611953717864 64.31217433690726 L 57.883864110184575 60.33657035443302 A 13 13 0 0 1 56.434392058679705 61.29595497668079 Z" stroke="none" stroke-width="0.1" fill="black"/>
<path d="M 63.858690587925516 74.32974918054325 A 28 28 0 0 0 66.98063039116677 72.26338230185574 L 63.9483749641727 68.2877783193815 A 23 23 0 0 1 61.38392441151024 69.9851511125891 Z" stroke="none" stroke-width="0.1" fill="black"/>
<path d="M 66.33345676434078 78.6743472484974 A 33 33 0 0 0 70.01288581816084 76.23898628432998 L 66.98063039116677 72.26338230185574 A 28 28 0 0 1 63.858690587925516 74.32974918054325 Z" stroke="none" stroke-width="0.1" fill="black"/>
<path d="M 56.742918681486415 66.68930938220217 A 18 18 0 0 0 58.90915823509498 65.64055304463494 L 56.434392058679705 61.29595497668079 A 13 13 0 0 1 54.869885714406855 62.05339010936824 Z" stroke="none" stroke-width="0.1" fill="black"/>
<path d="M 60.488984615645535 75.96114792787004 A 28 28 0 0 0 63.858690587925516 74.32974918054325 L 61.38392441151024 69.9851511125891 A 23 23 0 0 1 58.615951648565975 71.32522865503611 Z" stroke="none" stroke-width="0.1" fill="black"/>
<path d="M 62.362017582725095 80.59706720070399 A 33 33 0 0 0 66.33345676434078 78.6743472484974 L 63.858690587925516 74.32974918054325 A 28 28 0 0 1 60.488984615645535 75.96114792787004 Z" stroke="none" stroke-width="0.1" fill="black"/>
<path d="M 54.45612898504495 67.43969364606622 A 18 18 0 0 0 56.742918681486415 66.68930938220217 L 54.869885714406855 62.05339010936824 A 13 13 0 0 1 53.21831537808802 62.59533429993671 Z" stroke="none" stroke-width="0.1" fill="black"/>
<path d="M 55.69394259200188 72.28405299219571 A 23 23 0 0 0 58.615951648565975 71.32522865503611 L 56.742918681486415 66.68930938220217 A 18 18 0 0 1 54.45612898504495 67.43969364606622 Z" stroke="none" stroke-width="0.1" fill="black"/>
<path d="M 56.931756198958816 77.12841233832522 A 28 28 0 0 0 60.488984615645535 75.96114792787004 L 58.615951648565975 71.32522865503611 A 23 23 0 0 1 55.69394259200188 72.28405299219571 Z" stroke="none" stroke-width="0.1" fill="black"/>
<path d="M 58.16956980591574 81.97277168445473 A 33 33 0 0 0 62.362017582725095 80.59706720070399 L 60.488984615645535 75.96114792787004 A 28 28 0 0 1 56.931756198958816 77.12841233832522 Z" stroke="none" stroke-width="0.1" fill="black"/>
<path d="M 51.509207883627994 62.91209865064526 A 13 13 0 0 0 53.21831537808802 62.59533429993671 L 51.98050177113109 57.75097495380721 A 8 8 0 0 1 50.928743313001846 57.94590686193554 Z" stroke="none" stroke-width="0.1" fill="black"/>
<path d="M 52.08967245425414 67.87829043935497 A 18 18 0 0 0 54.45612898504495 67.43969364606622 L 53.21831537808802 62.59533429993671 A 13 13 0 0 1 51.509207883627994 62.91209865064526 Z" stroke="none" stroke-width="0.1" fill="black"/>
<path d="M 52.6701370248803 72.84448222806469 A 23 23 0 0 0 55.69394259200188 72.28405299219571 L 54.45612898504495 67.43969364606622 A 18 18 0 0 1 52.08967245425414 67.87829043935497 Z" stroke="none" stroke-width="0.1" fill="black"/>
<path d="M 53.250601595506446 77.81067401677441 A 28 28 0 0 0 56.931756198958816 77.12841233832522 L 55.69394259200188 72.28405299219571 A 23 23 0 0 1 52.6701370248803 72.84448222806469 Z" stroke="none" stroke-width="0.1" fill="black"/>
<path d="M 53.8310661661326 82.77686580548412 A 33 33 0 0 0 58.16956980591574 81.97277168445473 L 56.931756198958816 77.12841233832522 A 28 28 0 0 1 53.250601595506446 77.81067401677441 Z" stroke="none" stroke-width="0.1" fill="black"/>
<path d="M 49.77311871631532 62.998020037033086 A 13 13 0 0 0 51.509207883627994 62.91209865064526 L 50.928743313001846 57.94590686193554 A 8 8 0 0 1 49.86038074850173 57.99878156125113 Z" stroke="none" stroke-width="0.1" fill="black"/>
<path d="M 49.59859465194248 72.996496988597 A 23 23 0 0 0 52.6701370248803 72.84448222806469 L 52.08967245425414 67.87829043935497 A 18 18 0 0 1 49.6858566841289 67.99725851281505 Z" stroke="none" stroke-width="0.1" fill="black"/>
<path d="M 49.51133261975606 77.99573546437895 A 28 28 0 0 0 53.250601595506446 77.81067401677441 L 52.6701370248803 72.84448222806469 A 23 23 0 0 1 49.59859465194248 72.996496988597 Z" stroke="none" stroke-width="0.1" fill="black"/>
<path d="M 49.424070587569645 82.99497394016092 A 33 33 0 0 0 53.8310661661326 82.77686580548412 L 53.250601595506446 77.81067401677441 A 28 28 0 0 1 49.51133261975606 77.99573546437895 Z" stroke="none" stroke-width="0.1" fill="black"/>
<path d="M 46.53422861826189 72.73737954843357 A 23 23 0 0 0 49.59859465194248 72.996496988597 L 49.6858566841289 67.99725851281505 A 18 18 0 0 1 47.28765717950931 67.79447095094801 Z" stroke="none" stroke-width="0.1" fill="black"/>
<path d="M 45.78080005701448 77.68028814591912 A 28 28 0 0 0 49.51133261975606 77.99573546437895 L 49.59859465194248 72.996496988597 A 23 23 0 0 1 46.53422861826189 72.73737954843357 Z" stroke="none" stroke-width="0.1" fill="black"/>
<path d="M 45.02737149576706 82.62319674340469 A 33 33 0 0 0 49.424070587569645 82.99497394016092 L 49.51133261975606 77.99573546437895 A 28 28 0 0 1 45.78080005701448 77.68028814591912 Z" stroke="none" stroke-width="0.1" fill="black"/>
<path d="M 43.53182377006049 72.07176241849403 A 23 23 0 0 0 46.53422861826189 72.73737954843357 L 47.28765717950931 67.79447095094801 A 18 18 0 0 1 44.93794903743864 67.2735531970823 Z" stroke="none" stroke-width="0.1" fill="black"/>
<path d="M 40.71957323530418 81.66818086131752 A 33 33 0 0 0 45.02737149576706 82.62319674340469 L 45.78080005701448 77.68028814591912 A 28 28 0 0 1 42.12569850268234 76.86997163990577 Z" stroke="none" stroke-width="0.1" fill="black"/>
<path d="M 44.7124236400146 61.87609094935381 A 13 13 0 0 0 46.3440743048168 62.47534397567054 L 47.75019957219495 57.677134754258795 A 8 8 0 0 1 46.7461068553936 57.30836366114081 Z" stroke="none" stroke-width="0.1" fill="black"/>
<path d="M 40.6450572092566 71.01154552577982 A 23 23 0 0 0 43.53182377006049 72.07176241849403 L 44.93794903743864 67.2735531970823 A 18 18 0 0 1 42.6787404246356 66.44381823756682 Z" stroke="none" stroke-width="0.1" fill="black"/>
<path d="M 36.5776907784986 80.14700010220584 A 33 33 0 0 0 40.71957323530418 81.66818086131752 L 42.12569850268234 76.86997163990577 A 28 28 0 0 1 38.6113739938776 75.57927281399283 Z" stroke="none" stroke-width="0.1" fill="black"/>
<path d="M 43.17530445565072 61.064516741681 A 13 13 0 0 0 44.7124236400146 61.87609094935381 L 46.7461068553936 57.30836366114081 A 8 8 0 0 1 45.80018735732352 56.808933379496 Z" stroke="none" stroke-width="0.1" fill="black"/>
<path d="M 40.55042155397792 65.320100103866 A 18 18 0 0 0 42.6787404246356 66.44381823756682 L 44.7124236400146 61.87609094935381 A 13 13 0 0 1 43.17530445565072 61.064516741681 Z" stroke="none" stroke-width="0.1" fill="black"/>
<path d="M 37.92553865230512 69.57568346605099 A 23 23 0 0 0 40.6450572092566 71.01154552577982 L 42.6787404246356 66.44381823756682 A 18 18 0 0 1 40.55042155397792 65.320100103866 Z" stroke="none" stroke-width="0.1" fill="black"/>
<path d="M 32.67577284895952 78.08685019042099 A 33 33 0 0 0 36.5776907784986 80.14700010220584 L 38.6113739938776 75.57927281399283 A 28 28 0 0 1 35.300655750632316 73.831266828236 Z" stroke="none" stroke-width="0.1" fill="black"/>
<path d="M 38.591042586823214 63.92248866921135 A 18 18 0 0 0 40.55042155397792 65.320100103866 L 43.17530445565072 61.064516741681 A 13 13 0 0 1 41.76019742381676 60.05513070554153 Z" stroke="none" stroke-width="0.1" fill="black"/>
<path d="M 35.421887749829665 67.78984663288117 A 23 23 0 0 0 37.92553865230512 69.57568346605099 L 40.55042155397792 65.320100103866 A 18 18 0 0 1 38.591042586823214 63.92248866921135 Z" stroke="none" stroke-width="0.1" fill="black"/>
<path d="M 29.083578075842556 75.5245625602208 A 33 33 0 0 0 32.67577284895952 78.08685019042099 L 35.300655750632316 73.831266828236 A 28 28 0 0 1 32.25273291283611 71.657204596551 Z" stroke="none" stroke-width="0.1" fill="black"/>
<path d="M 36.835633370854936 62.27597048112497 A 18 18 0 0 0 38.591042586823214 63.92248866921135 L 41.76019742381676 60.05513070554153 A 13 13 0 0 1 40.49240187895079 58.86597868081248 Z" stroke="none" stroke-width="0.1" fill="black"/>
<path d="M 25.865327846567375 72.50594588206245 A 33 33 0 0 0 29.083578075842556 75.5245625602208 L 32.25273291283611 71.657204596551 A 28 28 0 0 1 29.522096354663226 69.09595408174997 Z" stroke="none" stroke-width="0.1" fill="black"/>
<path d="M 39.394583515425765 57.51832037018383 A 13 13 0 0 0 40.49240187895079 58.86597868081248 L 44.14917038704664 55.45598688049999 A 8 8 0 0 1 43.47358985564662 54.62665868934389 Z" stroke="none" stroke-width="0.1" fill="black"/>
<path d="M 35.31557717520491 60.40998205102376 A 18 18 0 0 0 36.835633370854936 62.27597048112497 L 40.49240187895079 58.86597868081248 A 13 13 0 0 1 39.394583515425765 57.51832037018383 Z" stroke="none" stroke-width="0.1" fill="black"/>
<path d="M 23.07855815454233 69.08496709354355 A 33 33 0 0 0 25.865327846567375 72.50594588206245 L 29.522096354663226 69.09595408174997 A 28 28 0 0 1 27.15756449476319 66.19330541270364 Z" stroke="none" stroke-width="0.1" fill="black"/>
<path d="M 38.48636916945002 56.03624925742874 A 13 13 0 0 0 39.394583515425765 57.51832037018383 L 43.47358985564662 54.62665868934389 A 8 8 0 0 1 42.914688719661555 53.714614927648455 Z" stroke="none" stroke-width="0.1" fill="black"/>
<path d="M 20.7730909686039 65.32278657654987 A 33 33 0 0 0 23.07855815454233 69.08496709354355 L 27.15756449476319 66.19330541270364 A 28 28 0 0 1 25.20141051881543 63.00115224676959 Z" stroke="none" stroke-width="0.1" fill="black"/>
<path d="M 18.990143514065025 61.28666472974707 A 33 33 0 0 0 20.7730909686039 65.32278657654987 L 25.20141051881543 63.00115224676959 A 28 28 0 0 1 23.688606617994566 59.57656401311873 Z" stroke="none" stroke-width="0.1" fill="black"/>
<path d="M 17.761591389677662 57.04875948475295 A 33 33 0 0 0 18.990143514065025 61.28666472974707 L 23.688606617994566 59.57656401311873 A 28 28 0 0 1 22.646198754878018 55.98076562342674 Z" stroke="none" stroke-width="0.1" fill="black"/>
<path d="M 12.87698402447731 58.11675334607915 A 38 38 0 0 0 14.291680410135484 62.99676544637542 L 18.990143514065025 61.28666472974707 A 33 33 0 0 1 17.761591389677662 57.04875948475295 Z" stroke="none" stroke-width="0.1" fill="black"/>
<path d="M 37.04309645542142 51.05766277068215 A 13 13 0 0 0 37.30002085047908 52.77678403944813 L 42.18462821567943 51.70879017812192 A 8 8 0 0 1 42.026520895643955 50.650869397342866 Z" stroke="none" stroke-width="0.1" fill="black"/>
<path d="M 17.1093986945313 52.68483626403931 A 33 33 0 0 0 17.761591389677662 57.04875948475295 L 22.646198754878018 55.98076562342674 A 28 28 0 0 1 22.09282313475383 52.27804289070002 Z" stroke="none" stroke-width="0.1" fill="black"/>
<path d="M 12.125974254308773 53.0916296373786 A 38 38 0 0 0 12.87698402447731 58.11675334607915 L 17.761591389677662 57.04875948475295 A 33 33 0 0 1 17.1093986945313 52.68483626403931 Z" stroke="none" stroke-width="0.1" fill="black"/>
<path d="M 37.01781604819054 49.31963256884173 A 13 13 0 0 0 37.04309645542142 51.05766277068215 L 42.026520895643955 50.650869397342866 A 8 8 0 0 1 42.01096372196341 49.58131235005645 Z" stroke="none" stroke-width="0.1" fill="black"/>
<path d="M 32.02466837441767 49.057952787627016 A 18 18 0 0 0 32.05967201519889 51.46445614402144 L 37.04309645542142 51.05766277068215 A 13 13 0 0 1 37.01781604819054 49.31963256884173 Z" stroke="none" stroke-width="0.1" fill="black"/>
<path d="M 17.045225353099063 48.272913443982866 A 33 33 0 0 0 17.1093986945313 52.68483626403931 L 22.09282313475383 52.27804289070002 A 28 28 0 0 1 22.038373026871934 48.53459322519758 Z" stroke="none" stroke-width="0.1" fill="black"/>
<path d="M 12.052077679326196 48.01123366276814 A 38 38 0 0 0 12.125974254308773 53.0916296373786 L 17.1093986945313 52.68483626403931 A 33 33 0 0 1 17.045225353099063 48.272913443982866 Z" stroke="none" stroke-width="0.1" fill="black"/>
<path d="M 32.31102835928456 46.66829138519513 A 18 18 0 0 0 32.02466837441767 49.057952787627016 L 37.01781604819054 49.31963256884173 A 13 13 0 0 1 37.22463159281663 47.593766000418704 Z" stroke="none" stroke-width="0.1" fill="black"/>
<path d="M 17.57021865868836 43.891867539524405 A 33 33 0 0 0 17.045225353099063 48.272913443982866 L 22.038373026871934 48.53459322519758 A 28 28 0 0 1 22.48382189222043 44.817342154747976 Z" stroke="none" stroke-width="0.1" fill="black"/>
<path d="M 12.656615425156296 42.96639292430083 A 38 38 0 0 0 12.052077679326196 48.01123366276814 L 17.045225353099063 48.272913443982866 A 33 33 0 0 1 17.57021865868836 43.891867539524405 Z" stroke="none" stroke-width="0.1" fill="black"/>
<path d="M 38.42982302564229 36.211200023858396 A 18 18 0 0 0 32.31102835928456 46.66829138519513 L 37.22463159281663 47.593766000418704 A 13 13 0 0 1 41.64376107407499 40.04142223945328 Z" stroke="none" stroke-width="0.1" fill="black"/>
<path d="M 35.21588497720959 32.38097780826351 A 23 23 0 0 0 27.397425125752495 45.742816769971554 L 32.31102835928456 46.66829138519513 A 18 18 0 0 1 38.42982302564229 36.211200023858396 Z" stroke="none" stroke-width="0.1" fill="black"/>
<path d="M 28.788008880344197 24.72053337707373 A 33 33 0 0 0 17.57021865868836 43.891867539524405 L 22.48382189222043 44.817342154747976 A 28 28 0 0 1 32.001946928776896 28.55075559266862 Z" stroke="none" stroke-width="0.1" fill="black"/>
<path d="M 25.5740708319115 20.89031116147884 A 38 38 0 0 0 12.656615425156296 42.96639292430083 L 17.57021865868836 43.891867539524405 A 33 33 0 0 1 28.788008880344197 24.72053337707373 Z" stroke="none" stroke-width="0.1" fill="black"/>
</svg>